<svg width="1463" height="660" fill="none" xmlns="http://www.w3.org/2000/svg"><g opacity=".2"><path d="M279 74c43.63 0 79 35.37 79 79H0V74h279z" fill="url(#paint0_linear)"/><path d="M279 74c43.63 0 79 35.37 79 79H0V74h279z" fill="url(#paint1_radial)" fill-opacity=".3"/><path d="M279 74c43.63 0 79 35.37 79 79H0V74h279z" fill="url(#paint2_radial)" fill-opacity=".5"/></g><circle cx="590" cy="86" r="17" fill="url(#paint3_linear)" fill-opacity=".6"/><circle cx="1132" cy="330" r="330" fill="url(#paint4_linear)"/><circle cx="1251" cy="330" r="211" stroke="#fff" stroke-width="2"/><defs><linearGradient id="paint0_linear" x1="358" y1="113.5" x2="0" y2="113.5" gradientUnits="userSpaceOnUse"><stop stop-color="#6A73CE"/><stop offset="1" stop-color="#A6D2FA" stop-opacity="0"/></linearGradient><linearGradient id="paint3_linear" x1="590" y1="69" x2="590" y2="103" gradientUnits="userSpaceOnUse"><stop stop-color="#A5ADED"/><stop offset="1" stop-color="#A5ADED" stop-opacity="0"/></linearGradient><linearGradient id="paint4_linear" x1="1132" y1="0" x2="1132" y2="660" gradientUnits="userSpaceOnUse"><stop stop-color="#A5BBEC"/><stop offset="1" stop-color="#B1DDF8" stop-opacity="0"/></linearGradient><radialGradient id="paint1_radial" cx="0" cy="0" r="1" gradientUnits="userSpaceOnUse" gradientTransform="rotate(-3.044 2794.561 -699.385) scale(179.247 140.985)"><stop stop-color="#CC98E5"/><stop offset="1" stop-color="#CC98E5" stop-opacity="0"/></radialGradient><radialGradient id="paint2_radial" cx="0" cy="0" r="1" gradientUnits="userSpaceOnUse" gradientTransform="matrix(-101.18319 -18.53043 14.92647 -81.50417 173.655 165.973)"><stop stop-color="#B3E7FC"/><stop offset="1" stop-color="#B3E7FC" stop-opacity="0"/></radialGradient></defs></svg>