<svg width="221" height="118" fill="none" xmlns="http://www.w3.org/2000/svg"><rect width="221" height="118" rx="36" fill="#508DCC"/><path d="M63.89 59.339a11.81 11.81 0 001.985-.2 15.482 15.482 0 002.422-.64 10.534 10.534 0 002.322-1.095 6.29 6.29 0 001.749-1.643 3.722 3.722 0 00.674-2.2 2.745 2.745 0 00-.774-2.008 4.895 4.895 0 00-1.986-1.15 8.387 8.387 0 00-2.558-.392 9.652 9.652 0 002.13-.402 18.693 18.693 0 002.787-1.022c.96-.434 1.874-.96 2.732-1.57a8.914 8.914 0 002.103-2.072 4.288 4.288 0 00.811-2.501 3.967 3.967 0 00-.91-2.656 4.015 4.015 0 00-3.224-1.123 13.777 13.777 0 00-3.233.429 73.866 73.866 0 00-3.497.913c-1.06.283-2.142.484-3.233.602-.064.174-.127.32-.173.457a1.206 1.206 0 00-.063.383.521.521 0 00.19.42c.218.135.475.193.73.164.478.005.955-.05 1.42-.164.428-.11.656-.137.674-.091a6.462 6.462 0 01-.774 2.09c-.438.776-.911 1.56-1.457 2.346a49.443 49.443 0 00-1.63 2.519c-.61.995-1.212 2.035-1.822 3.094a27.408 27.408 0 00-1.448 2.967 6.336 6.336 0 00-.555 2.135 2.286 2.286 0 00.537 1.67 2.63 2.63 0 001.357.676 8.793 8.793 0 001.603.146l1.11-.082zm1.748-10.907a55.7 55.7 0 001.066-1.99c.344-.691.648-1.401.91-2.127.238-.58.37-1.198.392-1.825a1.967 1.967 0 00-.2-.959 67.561 67.561 0 003.25-.675 14.361 14.361 0 013.224-.384c2.03 0 3.05.502 3.05 1.497a3.373 3.373 0 01-.91 2.163c-.709.8-1.52 1.504-2.413 2.09a24.754 24.754 0 01-3.178 1.826 27.569 27.569 0 01-3.306 1.314c-.883.308-1.8.505-2.732.585.219-.42.492-.904.847-1.516zm-4.726 9.127a4.68 4.68 0 01.637-2.163c.428-.803.911-1.625 1.467-2.456.555-.83.974-1.56 1.32-2.19a6.37 6.37 0 01.756-.055h1.102c.744 0 1.487.062 2.222.183.71.095 1.389.35 1.985.748a1.98 1.98 0 01.81 1.734 2.742 2.742 0 01-.728 1.707 9.118 9.118 0 01-1.822 1.698c-.755.536-1.575.974-2.44 1.305a7.006 7.006 0 01-2.459.493 5.742 5.742 0 01-2.295-.292c-.382-.228-.555-.456-.555-.721v.01zm65.96-10.899a.91.91 0 00.647-.21 1.13 1.13 0 00.355-.62.726.726 0 00-.142-.647.732.732 0 00-.605-.266.97.97 0 00-.683.301.907.907 0 00-.319.73c0 .503.246.713.747.713zM56.103 73.74l-.173-.063a3.845 3.845 0 001.566-1.433 3.969 3.969 0 00.556-2.136 3.411 3.411 0 00-1.348-2.994 6.2 6.2 0 00-3.697-.968H49v15.636h4.644a7.497 7.497 0 001.922-.246 5.128 5.128 0 001.657-.776c.49-.359.89-.828 1.166-1.37a4.21 4.21 0 00.428-1.998 3.418 3.418 0 00-.729-2.2 4.818 4.818 0 00-1.985-1.451zm-5.009-5.576h2.031a3.345 3.345 0 012.03.556 2.1 2.1 0 01.748 1.826 2.743 2.743 0 01-.574 1.762 2.277 2.277 0 01-1.876.72h-2.359v-4.864zm5.173 10.615a2.586 2.586 0 01-1.148.803 4.888 4.888 0 01-1.584.256h-2.44v-4.82h2.313c.523 0 1.044.073 1.548.22.474.134.905.392 1.247.748.339.398.512.911.483 1.433a2.19 2.19 0 01-.42 1.36zm16.535-2.532a3.575 3.575 0 01-.5 1.89 3.464 3.464 0 01-1.357 1.305 3.972 3.972 0 01-1.967.475 3.745 3.745 0 01-1.894-.475 3.647 3.647 0 01-1.822-3.195V66.143H63.16v10.168a5.624 5.624 0 00.774 2.985 5.231 5.231 0 002.094 1.962 6.168 6.168 0 002.95.694 6.271 6.271 0 002.97-.694 5.278 5.278 0 002.112-1.953c.54-.9.815-1.935.792-2.985V66.143h-2.049v10.104zm9.509-10.09h-2.094v15.627h10.017v-2.008h-7.922V66.157zm14.525 0H94.74v15.627h10.008v-2.008h-7.913V66.157zm23.222 2.578a7.184 7.184 0 00-2.614-1.87c-.191-.074-.382-.165-.573-.22-.191-.055-.528-.164-.811-.237a4.252 4.252 0 00-.628-.119l-.546-.073v.383a10.052 10.052 0 00-.128 1.607 1.05 1.05 0 01.291 0h.073c.139.019.275.046.41.082h.2l.183.046a.97.97 0 01.236.064l.137.045.164.082c.052.03.107.054.164.073l.328.146c.433.223.837.499 1.202.822a6.01 6.01 0 011.293 1.825 7.155 7.155 0 010 4.975 5.21 5.21 0 01-1.266 1.826 6.19 6.19 0 01-1.894 1.131 7.09 7.09 0 01-2.395.384h-2.495V68.16h.91a7.023 7.023 0 01-.191-2.017h-2.832v15.645h5.009c1.007 0 2.005-.18 2.95-.53a7.523 7.523 0 002.468-1.542 6.933 6.933 0 001.703-2.4 7.8 7.8 0 00.628-3.168 8.907 8.907 0 00-.483-2.811 7.297 7.297 0 00-1.493-2.602zm19.676-.38a8.37 8.37 0 00-2.55-1.753 7.749 7.749 0 00-6.165 0 8.285 8.285 0 00-2.531 1.753 8.11 8.11 0 00-1.722 2.555 7.68 7.68 0 00-.61 3.058 8.01 8.01 0 00.61 3.158c.399.95.985 1.81 1.722 2.529a7.88 7.88 0 005.627 2.29 7.68 7.68 0 003.069-.61 8.107 8.107 0 002.55-1.717 7.905 7.905 0 001.739-2.537c.419-.984.63-2.044.62-3.113a7.528 7.528 0 00-.62-3.058 8.312 8.312 0 00-1.739-2.555zm-.246 7.932a6.187 6.187 0 01-1.229 1.898 5.726 5.726 0 01-6.375 1.287 5.758 5.758 0 01-1.821-1.287 6.12 6.12 0 01-1.257-1.898 5.853 5.853 0 01-.446-2.3 6.149 6.149 0 01.428-2.319 5.581 5.581 0 011.229-1.917 5.786 5.786 0 011.822-1.296 5.452 5.452 0 012.285-.475 5.6 5.6 0 012.268.466c.682.307 1.3.74 1.821 1.278a6.059 6.059 0 011.712 4.244 5.874 5.874 0 01-.437 2.328v-.01zm14.67-.145h3.105v3.113a4.996 4.996 0 01-1.338.465 7.564 7.564 0 01-1.576.164 7.037 7.037 0 01-2.449-.42 5.58 5.58 0 01-1.904-1.195 5.286 5.286 0 01-1.238-1.826 6.244 6.244 0 01-.428-2.336c-.01-.853.135-1.7.428-2.501a5.404 5.404 0 011.238-1.899 5.326 5.326 0 011.913-1.214 7.03 7.03 0 012.504-.42 6.4 6.4 0 011.257.137c.44.098.875.22 1.302.365.372.117.73.276 1.065.475l.711-1.926a8.826 8.826 0 00-2.049-.821 9.225 9.225 0 00-2.523-.329 8.383 8.383 0 00-3.059.557 7.425 7.425 0 00-2.559 1.615 7.76 7.76 0 00-1.749 2.62 9.049 9.049 0 00-.637 3.496 7.994 7.994 0 00.573 3.048 7.089 7.089 0 001.64 2.438 7.561 7.561 0 002.568 1.624 9.172 9.172 0 003.378.584 8.673 8.673 0 001.393-.127c.487-.087.967-.203 1.439-.347.438-.134.867-.296 1.284-.484.328-.142.635-.33.911-.557v-6.316h-5.2v2.017zm18.979-.488a3.706 3.706 0 00-.911-1.269 5.374 5.374 0 00-1.284-.867 16.836 16.836 0 00-1.448-.63 24.024 24.024 0 01-1.612-.693 4.156 4.156 0 01-1.256-.913 1.731 1.731 0 01-.474-1.241 1.889 1.889 0 01.747-1.561 3.163 3.163 0 011.994-.584 6.198 6.198 0 011.822.31c.601.19 1.185.428 1.748.712l.792-1.607a9.542 9.542 0 00-2.04-.912 8.71 8.71 0 00-2.659-.365 5.62 5.62 0 00-2.376.566 4.194 4.194 0 00-1.63 1.45 3.9 3.9 0 00-.592 2.155 3.551 3.551 0 00.391 1.734 3.7 3.7 0 001.029 1.196c.434.328.905.603 1.403.821.51.229 1.001.43 1.493.621.502.196.991.421 1.466.675.427.228.805.538 1.111.913.29.379.438.847.419 1.324.029.54-.14 1.072-.473 1.497a2.86 2.86 0 01-1.193.83 4.06 4.06 0 01-1.457.274 5.205 5.205 0 01-1.421-.21 7.804 7.804 0 01-1.402-.538 8.907 8.907 0 01-1.193-.703l-.911 1.643c.456.297.934.56 1.43.785a9.014 9.014 0 001.73.62c.647.16 1.31.24 1.976.238a5.908 5.908 0 002.732-.584 4.322 4.322 0 001.757-1.598 4.27 4.27 0 00.611-2.254 4.77 4.77 0 00-.319-1.835z" fill="#fff"/><path d="M114.322 65.79v-.21c.046-.438.128-.867.201-1.305a41.455 41.455 0 011.603-6.252c1.702-5.02 2.349-6.992 1.994-8.215a.668.668 0 00-.701-.475c-.856 0-1.685-.127-2.295 1.004-.128.21-1.293 2.547-2.35 4.619l-1.484 2.83c-.173.292-.319.529-.437.748-.082.15-.177.294-.282.429-.055.073-.073.1-.101.1-.309-.045 3.552-8.698 3.597-9.538 0-.438-.491-.648-.828-.748a3.263 3.263 0 00-1.111-.1 2.72 2.72 0 00-.547.109 1.612 1.612 0 00-.491.228 2.169 2.169 0 00-.264.246 8.71 8.71 0 00-.647.913 25.08 25.08 0 00-.765 1.223 69.5 69.5 0 00-.81 1.378 79.32 79.32 0 01-.784 1.36 32.71 32.71 0 01-.701 1.15 6.298 6.298 0 01-.528.767c-.057.07-.121.135-.191.192.355-.913 1.73-5.048 1.821-5.385v-.073a.418.418 0 00-.146-.073 1.432 1.432 0 00-.473-.046 1.64 1.64 0 00-1.257.429 17.617 17.617 0 00-1.393 3.97l-.419.576-1.94 2.628c-.154.228-.437.566-.828 1.032-.392.465-.911.912-1.394 1.46a13.33 13.33 0 01-1.611 1.342 3.264 3.264 0 01-1.512.62 1.118 1.118 0 01-1.13-.538 3.483 3.483 0 01-.41-1.46v-.274a1.02 1.02 0 000-.247c.013-.443.053-.885.12-1.323.064-.486.158-.968.282-1.442.079-.358.207-.702.382-1.023a7.404 7.404 0 001.721-.502 13.094 13.094 0 002.623-1.588 5.42 5.42 0 001.621-1.825c.276-.5.414-1.064.4-1.634a1.38 1.38 0 00-.792-1.296 2.877 2.877 0 00-1.338-.192 4.592 4.592 0 00-2.168.803 7.003 7.003 0 00-1.976 2.054 16.353 16.353 0 00-1.894 3.724c-.055.164-.1.32-.146.475l-2.158 2.345c-.182.21-.455.493-.81.858l-1.139 1.114c-.372.333-.761.646-1.165.94a2.66 2.66 0 01-.838.502c-.163.073-.34.107-.52.1-.345 0-.51-.237-.491-.711v-.274c0-.091 0-.183.055-.301.097-.395.25-.773.455-1.123.255-.484.555-.986.91-1.506.356-.52.647-1.004.911-1.415.264-.41.52-.776.91-1.323l1.112-1.58c.346-.502.6-.912.737-1.122.292-.457.574-.913.847-1.47.252-.417.41-.884.465-1.369a.833.833 0 00-.219-.639 1.2 1.2 0 00-.82-.265c-.44.013-.871.132-1.256.347-.516.263-1.01.568-1.475.913-.501.383-.91.74-1.348 1.095-.437.356-.756.721-1.193 1.169-.437.447-.838.867-1.193 1.26-.355.392-.61.684-.747.866a67.282 67.282 0 011.74-3.76 97.989 97.989 0 012.003-3.898 33.35 33.35 0 002.54-1.095 29.955 29.955 0 002.642-1.406 44.68 44.68 0 002.504-1.615 22.26 22.26 0 002.104-1.734 8.604 8.604 0 001.475-1.78 3.413 3.413 0 00.574-1.68 1.966 1.966 0 00-.383-1.36 1.523 1.523 0 00-1.166-.511 6.19 6.19 0 00-2.731.493c-.875.376-1.696.867-2.441 1.46a14.21 14.21 0 00-2.14 2.118 26.92 26.92 0 00-1.821 2.473 35.63 35.63 0 00-1.521 2.52c-.446.83-.838 1.57-1.175 2.236-.5.155-.965.283-1.393.374a5.03 5.03 0 01-1.066.119c-.254 0-.382.046-.382.1 0 .055.1.119.31.183.104.026.21.042.318.046.29-.003.58-.034.865-.092a21.48 21.48 0 001.102-.246l-1.129 2.31c-.164.337-.328.693-.5 1.04l-.493.073a8.772 8.772 0 01-1.092.064c-.49 0-.98-.03-1.466-.092a1.5 1.5 0 00.227-.748 1.208 1.208 0 00-.446-.913 1.818 1.818 0 00-1.248-.383 4.481 4.481 0 00-2.285.748 10.866 10.866 0 00-2.231 1.762 11.193 11.193 0 00-1.339 1.67 8.99 8.99 0 00-.91 1.871 6.402 6.402 0 00-.347 2.045c-.031.766.2 1.52.656 2.136a1.966 1.966 0 001.594.766 3.637 3.637 0 001.94-.639 8.74 8.74 0 001.93-1.652 9.333 9.333 0 001.466-2.227c.36-.73.553-1.531.565-2.346a2.369 2.369 0 00-.346-1.35l.282-.137c.088.01.176.01.264 0h.346c.383 0 .81 0 1.293-.073.483-.073.91-.11 1.375-.192h.055l-.638 1.36c-.455.986-.91 1.908-1.275 2.738-.364.83-.7 1.552-.91 2.09a1.042 1.042 0 00-.1.393c0 .365.145.557.473.566a.673.673 0 00.42-.137c.175-.138.316-.316.409-.52.347-.689.759-1.343 1.23-1.954a23.811 23.811 0 011.647-1.944 61.371 61.371 0 011.685-1.716c.538-.52.984-.913 1.339-1.25.929-.755 1.536-1.129 1.821-1.123.11 0 .164.082.164.237a3.252 3.252 0 01-.446 1.169c-.146.287-.31.564-.492.83a45.15 45.15 0 01-.728 1.114l-.692 1.059-.428.639a58.17 58.17 0 00-1.275 1.962c-.465.724-.876 1.48-1.23 2.264a5.385 5.385 0 00-.564 2.072c-.044.447.052.896.273 1.287a1.294 1.294 0 001.129.493c.468-.015.922-.16 1.311-.42a9.106 9.106 0 001.476-1.105c.5-.438.91-.867 1.338-1.278.428-.41.701-.757 1.084-1.205l1.065-1.26.437-.51a8.93 8.93 0 00-.227 1.624v1.178a4.57 4.57 0 00.801 2.528 1.923 1.923 0 001.821.776 5.01 5.01 0 002.568-.913 12.91 12.91 0 002.204-1.99c.41-.458.793-.94 1.148-1.442l1.12-1.588c.352-.511.655-.93.91-1.26l.082-.109a18.286 18.286 0 00-.583 3.934c0 .046.119.073.31.073.364 0 .956-.073 1.011-.192a6.465 6.465 0 01.738-1.999c.792-.912 1.821-3.358 2.731-4.874.911-1.515 2.332-3.587 2.878-3.56.911.046-2.632 8.142-2.468 9.995 0 .402.264.53.72.53.32.014.637-.069.91-.238.046-.073.31-.693.72-1.56.091-.22.218-.43.309-.676.091-.246.119-.237.192-.383.291-.648.628-1.342.983-2.045a30.03 30.03 0 011.53-2.738c.242-.399.517-.777.82-1.132.072-.091.118-.164.191-.192a.346.346 0 01.164-.164.734.734 0 01.464-.219c.574.091-1.748 5.477-2.95 10.834a25.03 25.03 0 00-.41 2.136c-.046.338-.091.63-.119.913-.027.283-.045.575-.072.84-.013.2-.013.402 0 .602a7.875 7.875 0 000 1.086 3.631 3.631 0 00.164.931c.052.208.125.41.218.603.264.53.528.794 1.029.84h.073a1.68 1.68 0 001.147-.676 2.725 2.725 0 00-.856-.118.18.18 0 01-.1 0 .074.074 0 01-.073 0c-.091-.055-.145-.265-.145-.63v-.292a10.04 10.04 0 01.091-1.662c.027-.1.045-.228.063-.356zM97.567 54.171c.364-.657.755-1.296 1.183-1.944a10.02 10.02 0 011.294-1.598c.324-.37.77-.612 1.256-.684a.528.528 0 01.492.192.96.96 0 01.2.538 2.45 2.45 0 01-.236 1.114 3.36 3.36 0 01-.911 1.223c-.219.21-.501.465-.856.776-.355.31-.738.602-1.157.912a12.57 12.57 0 01-1.21.785 2.727 2.727 0 01-.975.393c.255-.484.555-1.05.92-1.707zm-4.754-12.569a22.87 22.87 0 011.348-1.551 16.095 16.095 0 011.684-1.552 8.857 8.857 0 011.822-1.178 3.808 3.808 0 011.821-.41c.383 0 .61.091.683.273.067.169.101.349.1.53a3.39 3.39 0 01-.492 1.579 7.71 7.71 0 01-1.293 1.643 15.43 15.43 0 01-1.82 1.615 31.198 31.198 0 01-2.241 1.525 43.83 43.83 0 01-2.377 1.342c-.801.429-1.612.812-2.377 1.131a35.094 35.094 0 013.142-4.947zm-10.654 9.466a25.873 25.873 0 01-1.549-.265.4.4 0 00-.364.064.346.346 0 00-.155.31.549.549 0 00.11.347l.364.265c.16.078.333.125.51.137a.11.11 0 00.082 0c.07.095.112.21.118.328.01.158.01.317 0 .475v.301c.009.112.009.225 0 .338a9.014 9.014 0 01-.555 2.026c-.275.706-.626 1.38-1.047 2.008a5.911 5.911 0 01-1.367 1.47c-.431.35-.965.549-1.52.566a.819.819 0 01-.793-.53 2.992 2.992 0 01-.245-1.26 6.788 6.788 0 01.209-1.615 7.64 7.64 0 01.51-1.415c.304-.615.648-1.21 1.029-1.78a17.49 17.49 0 011.275-1.67 7.55 7.55 0 011.33-1.241 2.286 2.286 0 011.31-.475c.693 0 1.039.228 1.039.694a1.829 1.829 0 01-.291.922zm66.032 3.332c-.064 0-.137.055-.237.173a21.871 21.871 0 01-1.921 2.017 24.66 24.66 0 01-.738.603c-.291.242-.595.467-.911.675a1.618 1.618 0 01-.765.31c-.155 0-.227-.127-.227-.374.024-.424.11-.842.255-1.241.173-.538.382-1.114.637-1.734.255-.62.492-1.187.747-1.725l.574-1.27c.136-.291.309-.684.519-1.167a3.78 3.78 0 00.318-1.488 1.023 1.023 0 00-.373-.913 1.536 1.536 0 00-.911-.256 3.076 3.076 0 00-1.439.402 5.996 5.996 0 00-1.702 1.497l-.911 1.095a21.056 21.056 0 00-1.539 2.018c-.373.575-.665 1.013-.911 1.296.137-.32.337-.749.62-1.27.282-.52.573-1.058.91-1.642.337-.584.647-1.123.956-1.643.31-.52.565-.913.774-1.269.127-.2.214-.423.255-.657 0-.21-.145-.32-.428-.32a2.17 2.17 0 00-1.065.356c-.36.203-.659.5-.865.858a71.6 71.6 0 00-1.821 3.971 47.228 47.228 0 01-1.412 3.113l-.073.082-.574.611c-.38.44-.784.857-1.211 1.25-.377.363-.803.67-1.265.913a1.47 1.47 0 01-.601.229c-.192 0-.292-.128-.292-.374.05-.467.189-.92.41-1.333.127-.301.337-.74.619-1.296.282-.557.574-1.141.911-1.753l.91-1.661c.265-.493.428-.822.51-.995a.265.265 0 00.029-.223.276.276 0 00-.147-.17 1.209 1.209 0 00-.574-.127 1.56 1.56 0 00-.546.091.635.635 0 00-.373.256c-.137.191-.31.456-.52.776l-1.038 1.213c-.437.52-.91 1.041-1.411 1.57-.425.464-.884.895-1.375 1.287a2.804 2.804 0 01-1.439.749c-.291 0-.437-.183-.437-.548.047-.462.173-.913.373-1.332a14.88 14.88 0 011.184-2.191 13.51 13.51 0 011.821-2.218 13.643 13.643 0 011.822-1.588 2.946 2.946 0 011.666-.657 1.283 1.283 0 011.211.976c.073.228.201.347.374.347s.346-.137.346-.402a.916.916 0 00-.437-.748 3.712 3.712 0 00-1.093-.62 3.365 3.365 0 00-1.12-.192 4.452 4.452 0 00-2.304.739 10.967 10.967 0 00-2.268 1.825 14.72 14.72 0 00-1.821 2.3 9.853 9.853 0 00-.774 1.644 5.58 5.58 0 00-.273.967 1.157 1.157 0 01-.137.155l-.574.612c-.194.213-.476.517-.846.913-.36.362-.744.7-1.148 1.013a1.888 1.888 0 01-1.056.447.616.616 0 01-.583-.265 1.283 1.283 0 01-.164-.693c.031-.666.188-1.32.464-1.926.334-.811.717-1.6 1.148-2.364.464-.831.911-1.634 1.43-2.428l1.275-2.072a.513.513 0 000-.329c0-.173-.155-.255-.465-.255a2.432 2.432 0 00-.911.219 1.226 1.226 0 00-.692.584c-.054.118-.2.356-.428.72a52.77 52.77 0 00-.719 1.188l-.665 1.095c-.224.401-.479.885-.765 1.451a30.768 30.768 0 00-.747 1.707c-.188.47-.337.956-.446 1.451 0 .265-.063.502-.073.73-.774 1.397-1.821 3.268-2.413 4.564-.337.648-.737 1.561-1.174 2.474-.092.191-.164.383-.265.575-.164.365-.355.748-.528 1.104.281.05.556.13.82.238.309-.575.619-1.224.91-1.899a66.955 66.955 0 001.439-3.268 42.47 42.47 0 01.72-1.697c.073-.174.145-.32.218-.457.11-.283.219-.52.328-.74a1.345 1.345 0 001.43 1.206 3.19 3.19 0 002.103-.813c.6-.51 1.158-1.068 1.667-1.67.228-.246.455-.502.665-.748a1.68 1.68 0 00.373 1.095 1.594 1.594 0 001.266.493 3.035 3.035 0 001.821-.612 8.38 8.38 0 001.566-1.515c.483-.602.911-1.214 1.339-1.825a7.84 7.84 0 01-.319.794l-.501 1.113c-.173.375-.327.712-.455 1.023-.102.213-.19.432-.264.657a4.33 4.33 0 00-.173 1.159c0 .995.382 1.497 1.147 1.497a2.33 2.33 0 00.993-.283c.44-.248.844-.556 1.202-.913.228-.219.455-.438.674-.684.218-.247.437-.484.646-.73l.119-.138a1.254 1.254 0 000 .174.815.815 0 00.173.52.52.52 0 00.373.2c.237 0 .437-.154.61-.465.302-.556.634-1.095.993-1.615a67.473 67.473 0 013.205-4.381l1.066-1.324c.35-.472.768-.89 1.238-1.241.23-.21.52-.34.829-.375a.426.426 0 01.392.229c.091.19.135.4.127.611a4.705 4.705 0 01-.501 1.88 43.191 43.191 0 01-1.165 2.355 34.086 34.086 0 00-1.166 2.42 5.492 5.492 0 00-.501 2.108 1.83 1.83 0 00.201.912.714.714 0 00.692.375h.227c.076.008.152.008.228 0a1.51 1.51 0 00.3-.1c.128-.046.265-.11.419-.183a10.995 10.995 0 001.63-1.096c.472-.392.916-.816 1.33-1.268.273-.292.528-.594.783-.913a8.22 8.22 0 00.546-.758l.155-.32a.615.615 0 00.073-.227c-.036-.228-.064-.283-.118-.283z" fill="#fff"/></svg>