<svg width="155" height="155" fill="none" xmlns="http://www.w3.org/2000/svg"><rect width="155" height="155" rx="45" fill="url(#paint0_linear)"/><g clip-path="url(#clip0)" fill="#fff"><path d="M62.375 66.02v-9.375c0-.541.063-1.062.208-1.562h-5.937c-2 0-3.646 1.646-3.646 3.646v9.375c0 2 1.646 3.646 3.646 3.646h.77l2.667 3.541c.292.375.73.604 1.188.625h.062c.459 0 .875-.187 1.167-.541l3.125-3.563c-1.938-1.208-3.25-3.354-3.25-5.792zm36.979-10.937h-5.937c.145.5.208 1.02.208 1.562v9.375c0 2.438-1.313 4.584-3.25 5.792l3.125 3.563c.292.354.708.541 1.167.541h.062c.459-.02.896-.25 1.188-.625l2.645-3.541h.792c2 0 3.646-1.646 3.646-3.646v-9.375c0-2-1.646-3.646-3.646-3.646zM78 73.833h-.058a1.568 1.568 0 01-1.192-.625l-2.656-3.541h-4.948A3.65 3.65 0 0165.5 66.02v-9.375A3.65 3.65 0 0169.146 53h17.708a3.65 3.65 0 013.646 3.646v9.375a3.65 3.65 0 01-3.646 3.646h-4.5L79.175 73.3c-.296.34-.725.533-1.175.533zM61.333 88.416a4.167 4.167 0 100-8.333 4.167 4.167 0 000 8.333zm5.563 2.917a8.73 8.73 0 00-3.48 6.98v.52h-8.853A1.574 1.574 0 0153 97.271v-1.042a5.726 5.726 0 015.73-5.729h5.208c1.083 0 2.104.313 2.958.833zm27.771-2.917a4.167 4.167 0 100-8.333 4.167 4.167 0 000 8.333zM103 96.23v1.04c0 .855-.708 1.563-1.563 1.563h-8.854v-.52a8.73 8.73 0 00-3.479-6.98 5.692 5.692 0 012.959-.833h5.208A5.726 5.726 0 01103 96.23zm-25-6.772a6.25 6.25 0 100-12.5 6.25 6.25 0 000 12.5zm5.73 3.125H72.27a5.734 5.734 0 00-5.728 5.729v3.125c0 .863.7 1.563 1.562 1.563h19.792c.862 0 1.562-.7 1.562-1.563v-3.125c0-3.16-2.569-5.73-5.729-5.73z"/></g><defs><linearGradient id="paint0_linear" x1="77.5" y1="0" x2="77.5" y2="155" gradientUnits="userSpaceOnUse"><stop stop-color="#88C3F8"/><stop offset="1" stop-color="#888FD8"/></linearGradient><clipPath id="clip0"><path fill="#fff" transform="translate(53 53)" d="M0 0h50v50H0z"/></clipPath></defs></svg>