<svg width="155" height="155" fill="none" xmlns="http://www.w3.org/2000/svg"><rect width="155" height="155" rx="45" fill="url(#paint0_linear)"/><g clip-path="url(#clip0)"><path d="M101.603 76.724a4.584 4.584 0 001.168-4.728 4.583 4.583 0 00-3.724-3.14l-10.809-1.57a1.685 1.685 0 01-1.268-.921l-4.834-9.796A4.584 4.584 0 0078 54a4.584 4.584 0 00-4.136 2.57l-4.834 9.796c-.246.497-.72.841-1.267.921l-10.81 1.57a4.582 4.582 0 00-3.724 3.14 4.582 4.582 0 001.167 4.727l7.822 7.626c.397.386.578.943.485 1.489l-1.847 10.767a4.584 4.584 0 001.835 4.51 4.588 4.588 0 004.857.352l9.669-5.084a1.684 1.684 0 011.566 0l9.668 5.084a4.588 4.588 0 004.858-.352 4.584 4.584 0 001.835-4.51l-1.847-10.767a1.683 1.683 0 01.485-1.49l7.821-7.624z" fill="#fff"/></g><defs><linearGradient id="paint0_linear" x1="77.5" y1="0" x2="77.5" y2="155" gradientUnits="userSpaceOnUse"><stop stop-color="#88C3F8"/><stop offset="1" stop-color="#888FD8"/></linearGradient><clipPath id="clip0"><path fill="#fff" transform="translate(53 53)" d="M0 0h50v50H0z"/></clipPath></defs></svg>