<svg width="155" height="155" fill="none" xmlns="http://www.w3.org/2000/svg"><rect width="155" height="155" rx="45" fill="url(#paint0_linear)"/><g clip-path="url(#clip0)"><path d="M102.458 63.026l-6.157 6.157h-7.133l-1.125 1.125-4.28 4.28-2.667 2.667-2.255 2.255a1.723 1.723 0 01-2.48-.038c-.648-.689-.58-1.787.089-2.456l4.486-4.487.344-.343 4.299-4.299 1.146-1.147v-7.133l2.13-2.128 4.027-4.028a1.621 1.621 0 01.383-.283l.015-.007c.056-.029.114-.053.172-.074l.044-.015c.062-.02.125-.037.188-.049l.026-.003c.057-.01.114-.016.17-.018l.045-.003c.063 0 .127.001.19.008.01 0 .02.003.03.004.055.007.11.017.163.03l.045.01c.06.016.12.035.18.058l.024.011c.052.022.102.046.15.073l.042.023c.054.032.107.066.157.105.007.004.012.01.018.014.045.035.087.074.128.114l.034.035c.045.046.087.094.125.147l.01.013c.034.05.066.1.095.154l.023.045c.03.06.057.12.08.185a1.511 1.511 0 01.061.255c.01.071.019.144.02.219l.124 5.782.124.002 5.658.121c.305.007.572.098.796.243a1.466 1.466 0 01.501.526c.071.124.125.258.16.397a1.507 1.507 0 01-.405 1.453zM77.315 65.1c-7.54 0-13.675 6.135-13.675 13.675 0 7.541 6.135 13.676 13.675 13.676 7.54 0 13.676-6.135 13.676-13.675 0-1.86-.377-3.633-1.053-5.25l-4.942 4.942c.004.103.011.204.011.308 0 4.241-3.45 7.692-7.692 7.692s-7.692-3.45-7.692-7.692c0-4.227 3.427-7.667 7.648-7.691l5.038-5.039a13.587 13.587 0 00-4.994-.946zm21.542 6.64a3.614 3.614 0 01-2.556 1.058h-2.765a17.19 17.19 0 011.07 5.977c0 9.534-7.757 17.29-17.29 17.29-9.535 0-17.29-7.756-17.29-17.29 0-9.534 7.755-17.29 17.29-17.29 2.032 0 3.983.357 5.795 1.005v-2.882c0-.958.38-1.877 1.059-2.555l1.143-1.144a24.116 24.116 0 00-7.998-1.359c-13.358 0-24.225 10.868-24.225 24.226C53.09 92.132 63.957 103 77.315 103s24.225-10.868 24.225-24.225c0-2.902-.514-5.685-1.454-8.265l-1.23 1.229z" fill="#fff"/></g><defs><linearGradient id="paint0_linear" x1="77.5" y1="0" x2="77.5" y2="155" gradientUnits="userSpaceOnUse"><stop stop-color="#88C3F8"/><stop offset="1" stop-color="#888FD8"/></linearGradient><clipPath id="clip0"><path fill="#fff" transform="translate(53 53)" d="M0 0h50v50H0z"/></clipPath></defs></svg>