<svg width="155" height="155" fill="none" xmlns="http://www.w3.org/2000/svg"><rect width="155" height="155" rx="45" fill="url(#paint0_linear)"/><path d="M81.884 77.394l-1.734 1.008a1 1 0 00-.498.865v20.998a1 1 0 001.502.865l18.098-10.49a1 1 0 00.498-.865V68.777a1 1 0 00-1.501-.865l-16.365 9.482zm2.147-20.038a1 1 0 00.001-1.73l-5.738-3.334a1 1 0 00-1.004-.001L58.628 63.106a1 1 0 000 1.73l5.746 3.335a1 1 0 001.004 0l18.653-10.815zm12.906 7.486a1 1 0 00-.006-1.733l-6.9-3.946a1 1 0 00-.998.003l-19 11.016a.73.73 0 00.03 1.278l7.228 4.191a1 1 0 001.003 0l7.186-4.16 11.457-6.65zM67.325 77.777a1 1 0 01-1.459.888l-1.699-.877a1 1 0 01-.541-.888v-4.748a1 1 0 00-.5-.865l-5.625-3.253A1 1 0 0056 68.9v20.834a1 1 0 00.498.865l17.954 10.407a1 1 0 001.501-.865v-20.83a1 1 0 00-.5-.867l-6.627-3.833a1 1 0 00-1.501.866v2.3z" fill="#fff"/><defs><linearGradient id="paint0_linear" x1="77.5" y1="0" x2="77.5" y2="155" gradientUnits="userSpaceOnUse"><stop stop-color="#88C3F8"/><stop offset="1" stop-color="#888FD8"/></linearGradient></defs></svg>