<svg width="578" height="308" fill="none" xmlns="http://www.w3.org/2000/svg"><rect width="578" height="308" rx="30" fill="#fff"/><path d="M166.526 154.503c1.724-.027 3.442-.2 5.136-.518a39.947 39.947 0 006.267-1.649 27.391 27.391 0 006.008-2.828 16.253 16.253 0 004.524-4.241 9.586 9.586 0 001.743-5.678 7.064 7.064 0 00-2.002-5.183 12.686 12.686 0 00-5.136-2.969 21.776 21.776 0 00-6.621-1.013 24.976 24.976 0 005.513-1.036c2.47-.688 4.88-1.57 7.21-2.639a42.209 42.209 0 007.068-4.052 23.032 23.032 0 005.442-5.349 11.045 11.045 0 002.097-6.455 10.217 10.217 0 00-2.356-6.856 10.386 10.386 0 00-8.34-2.898c-2.822.037-5.63.409-8.364 1.107a191.458 191.458 0 00-9.047 2.356 55.786 55.786 0 01-8.364 1.555c-.165.448-.33.825-.448 1.178a3.115 3.115 0 00-.165.99 1.345 1.345 0 00.495 1.083c.563.35 1.227.499 1.885.425 1.238.012 2.473-.13 3.675-.425 1.108-.282 1.697-.353 1.744-.235a16.652 16.652 0 01-2.003 5.395c-1.131 2.003-2.356 4.029-3.77 6.055-1.413 2.026-2.638 3.935-4.217 6.503-1.579 2.568-3.133 5.254-4.712 7.987a70.58 70.58 0 00-3.746 7.657 16.305 16.305 0 00-1.437 5.513 5.884 5.884 0 001.39 4.312 6.807 6.807 0 003.51 1.743 22.8 22.8 0 004.147.377l2.874-.212zm4.524-28.155a138.786 138.786 0 002.756-5.136 51.683 51.683 0 002.356-5.489 13.606 13.606 0 001.014-4.712 5.064 5.064 0 00-.519-2.474c2.757-.495 5.56-1.084 8.411-1.744a37.243 37.243 0 018.341-.989c5.254 0 7.892 1.296 7.892 3.864a8.69 8.69 0 01-2.356 5.583 31.34 31.34 0 01-6.243 5.396 64.166 64.166 0 01-8.223 4.712 71.513 71.513 0 01-8.552 3.393 29.12 29.12 0 01-7.068 1.507c.565-1.083 1.272-2.332 2.191-3.911zm-12.228 23.561a12.074 12.074 0 011.649-5.584 73.977 73.977 0 013.793-6.338 73.976 73.976 0 003.417-5.654 16.597 16.597 0 011.955-.142h2.851a35.72 35.72 0 015.749.472c1.836.245 3.593.905 5.136 1.932a5.113 5.113 0 012.097 4.476 7.069 7.069 0 01-1.885 4.406 23.555 23.555 0 01-4.712 4.382 28.591 28.591 0 01-6.314 3.369 18.154 18.154 0 01-6.362 1.272 14.885 14.885 0 01-5.937-.753c-.989-.589-1.437-1.178-1.437-1.862v.024zm170.648-28.132a2.355 2.355 0 001.673-.542c.473-.42.795-.982.919-1.602a1.893 1.893 0 00-.367-1.67 1.89 1.89 0 00-1.565-.686 2.508 2.508 0 00-1.767.777 2.361 2.361 0 00-.825 1.885c0 1.296.636 1.838 1.932 1.838zm-183.093 69.907l-.448-.165a9.938 9.938 0 004.053-3.699 10.22 10.22 0 001.437-5.513 8.781 8.781 0 00-3.487-7.727 16.065 16.065 0 00-9.565-2.498H128v40.359h12.016c1.677.003 3.348-.21 4.971-.636a13.29 13.29 0 004.288-2.003 9.986 9.986 0 003.016-3.534 10.839 10.839 0 001.107-5.159 8.81 8.81 0 00-1.885-5.679 12.469 12.469 0 00-5.136-3.746zm-12.958-14.395h5.254a8.67 8.67 0 015.254 1.437 5.423 5.423 0 011.932 4.712 7.062 7.062 0 01-1.485 4.547 5.894 5.894 0 01-4.853 1.862h-6.102v-12.558zm13.382 27.401a6.687 6.687 0 01-2.968 2.073 12.668 12.668 0 01-4.1.66h-6.314v-12.44h5.984a14.328 14.328 0 014.006.565 7.186 7.186 0 013.227 1.932 5.256 5.256 0 011.249 3.699 5.654 5.654 0 01-1.084 3.511zm42.778-6.531a9.213 9.213 0 01-1.295 4.877 8.962 8.962 0 01-3.511 3.369 10.291 10.291 0 01-5.089 1.225 9.719 9.719 0 01-4.901-1.225 9.435 9.435 0 01-4.712-8.246v-26.082h-5.442v26.246a14.496 14.496 0 002.002 7.705 13.525 13.525 0 005.419 5.065 16.005 16.005 0 007.634 1.791 16.26 16.26 0 007.681-1.791 13.643 13.643 0 005.466-5.042 14.323 14.323 0 002.049-7.704v-26.27h-5.301v26.082zm24.608-26.054h-5.419v40.336h25.916v-5.183h-20.497v-35.153zm37.578 0h-5.419v40.336h25.893v-5.183h-20.474v-35.153zm60.079 6.663a18.606 18.606 0 00-6.762-4.83c-.495-.188-.99-.424-1.484-.565-.495-.141-1.367-.424-2.097-.613a11.093 11.093 0 00-1.626-.306l-1.413-.188v.989a25.827 25.827 0 00-.33 4.147 2.72 2.72 0 01.754 0h.188a8.46 8.46 0 011.06.212h.519l.471.118c.21.03.416.085.612.165l.354.117.424.212c.135.077.277.14.424.189l.848.377a15.112 15.112 0 013.11 2.12 15.503 15.503 0 013.346 4.712 18.434 18.434 0 010 12.841 13.441 13.441 0 01-3.275 4.712 16.017 16.017 0 01-4.901 2.921 18.36 18.36 0 01-6.196.99h-6.456v-29.804h2.356a17.998 17.998 0 01-.494-5.207h-7.328v40.383h12.959a22.048 22.048 0 007.633-1.367 19.456 19.456 0 006.385-3.981 17.886 17.886 0 004.406-6.197 20.09 20.09 0 001.625-8.175 22.924 22.924 0 00-1.248-7.257 18.849 18.849 0 00-3.864-6.715zm50.903-.988a21.642 21.642 0 00-6.597-4.524 20.107 20.107 0 00-15.95 0 21.434 21.434 0 00-6.55 4.524 20.897 20.897 0 00-4.453 6.597 19.778 19.778 0 00-1.579 7.893 20.608 20.608 0 001.579 8.151 19.845 19.845 0 004.453 6.527 20.404 20.404 0 0014.56 5.913c2.727.024 5.43-.514 7.94-1.578a20.976 20.976 0 006.597-4.43 20.434 20.434 0 004.5-6.549 19.978 19.978 0 001.602-8.034 19.389 19.389 0 00-1.602-7.893 21.44 21.44 0 00-4.5-6.597zm-.636 20.474a15.964 15.964 0 01-3.181 4.9 14.838 14.838 0 01-16.492 3.323 14.89 14.89 0 01-4.712-3.323 15.739 15.739 0 01-3.251-4.9 15.081 15.081 0 01-1.155-5.937 15.817 15.817 0 011.107-5.985 14.407 14.407 0 013.181-4.947 14.952 14.952 0 014.712-3.346 14.136 14.136 0 015.914-1.225 14.502 14.502 0 015.866 1.202 15.358 15.358 0 014.712 3.298 15.619 15.619 0 014.43 10.956 15.162 15.162 0 01-1.131 6.008v-.024zm37.958-.374h8.034v8.034a12.976 12.976 0 01-3.463 1.202 19.67 19.67 0 01-4.076.424 18.28 18.28 0 01-6.338-1.084 14.453 14.453 0 01-4.924-3.086 13.617 13.617 0 01-3.205-4.713 16.09 16.09 0 01-1.107-6.031 18.108 18.108 0 011.107-6.456 13.958 13.958 0 013.205-4.9 13.757 13.757 0 014.947-3.134 18.248 18.248 0 016.479-1.083c1.093.008 2.183.127 3.252.353 1.139.253 2.264.568 3.369.942.963.302 1.888.713 2.757 1.226l1.837-4.972a22.803 22.803 0 00-5.301-2.12 23.895 23.895 0 00-6.526-.848 21.74 21.74 0 00-7.916 1.437 19.243 19.243 0 00-6.621 4.17 20.04 20.04 0 00-4.523 6.762 23.317 23.317 0 00-1.65 9.024 20.613 20.613 0 001.485 7.869 18.277 18.277 0 004.241 6.29 19.59 19.59 0 006.644 4.194 23.784 23.784 0 008.74 1.508 22.457 22.457 0 003.605-.33 31.71 31.71 0 003.723-.895 28.141 28.141 0 003.322-1.249 9.956 9.956 0 002.356-1.437v-16.304h-13.453v5.207zm49.101-1.253a9.557 9.557 0 00-2.356-3.275 13.934 13.934 0 00-3.322-2.238c-1.225-.612-2.473-1.131-3.746-1.625a61.851 61.851 0 01-4.17-1.791 10.737 10.737 0 01-3.251-2.356 4.466 4.466 0 01-1.225-3.204 4.846 4.846 0 011.932-4.029 8.201 8.201 0 015.159-1.508c1.602.03 3.19.3 4.712.801a30.234 30.234 0 014.524 1.838l2.05-4.147a24.814 24.814 0 00-5.278-2.356 22.59 22.59 0 00-6.879-.942c-2.132.031-4.231.53-6.15 1.46a10.86 10.86 0 00-4.217 3.747 10.078 10.078 0 00-1.531 5.56 9.155 9.155 0 001.013 4.476 9.566 9.566 0 002.662 3.087 18.075 18.075 0 003.628 2.12 84.067 84.067 0 003.864 1.602 35.128 35.128 0 013.793 1.744 9.418 9.418 0 012.875 2.356 5.258 5.258 0 011.084 3.416 5.752 5.752 0 01-1.226 3.864 7.37 7.37 0 01-3.086 2.144 10.59 10.59 0 01-3.77.707 13.488 13.488 0 01-3.675-.542 20.295 20.295 0 01-3.628-1.39 23.234 23.234 0 01-3.087-1.814l-2.356 4.241a28.405 28.405 0 003.699 2.026 23.397 23.397 0 004.477 1.602c1.673.411 3.389.617 5.112.612a15.31 15.31 0 007.068-1.507 11.185 11.185 0 004.547-4.123 11.003 11.003 0 001.579-5.82c.04-1.617-.24-3.227-.825-4.736z" fill="#252525"/><path d="M297.003 171.159v-.541c.117-1.131.33-2.239.518-3.37a107.221 107.221 0 014.147-16.138c4.405-12.959 6.078-18.048 5.159-21.205a1.717 1.717 0 00-1.814-1.225c-2.214 0-4.358-.33-5.937 2.592-.33.542-3.346 6.573-6.079 11.921l-3.84 7.304c-.448.754-.825 1.366-1.131 1.932a8.142 8.142 0 01-.73 1.107c-.142.189-.189.259-.259.259-.801-.117 9.188-22.453 9.306-24.62 0-1.131-1.272-1.673-2.144-1.932a8.439 8.439 0 00-2.874-.259c-.48.046-.954.14-1.414.282a4.212 4.212 0 00-1.272.589 5.718 5.718 0 00-.683.637 22.213 22.213 0 00-1.673 2.356c-.707 1.036-1.343 2.097-1.979 3.157-.636 1.06-1.414 2.356-2.097 3.557a233.16 233.16 0 01-2.026 3.511 87.631 87.631 0 01-1.815 2.968A16.372 16.372 0 01277 146.02a3.218 3.218 0 01-.495.495c.919-2.356 4.477-13.029 4.712-13.9v-.189a1.069 1.069 0 00-.377-.188 3.72 3.72 0 00-1.225-.118 4.23 4.23 0 00-3.251 1.107 45.337 45.337 0 00-3.605 10.249l-1.084 1.484-5.018 6.786c-.401.589-1.131 1.46-2.144 2.662-1.013 1.202-2.356 2.356-3.605 3.77a34.447 34.447 0 01-4.17 3.463 8.458 8.458 0 01-3.911 1.602 2.905 2.905 0 01-1.673-.249 2.906 2.906 0 01-1.249-1.141 8.986 8.986 0 01-1.06-3.77v-.706a2.818 2.818 0 000-.636c.033-1.144.135-2.285.307-3.417.166-1.255.41-2.498.73-3.722.204-.922.537-1.81.989-2.639a19.127 19.127 0 004.453-1.296 33.881 33.881 0 006.786-4.099 14.01 14.01 0 004.194-4.712 8.278 8.278 0 001.036-4.218 3.58 3.58 0 00-2.05-3.345 7.46 7.46 0 00-3.463-.495 11.89 11.89 0 00-5.607 2.073 18.093 18.093 0 00-5.113 5.301 42.217 42.217 0 00-4.901 9.613c-.141.424-.259.825-.376 1.225l-5.584 6.055c-.472.542-1.178 1.272-2.097 2.215l-2.945 2.874a38.61 38.61 0 01-3.016 2.427 6.94 6.94 0 01-2.168 1.296 3.037 3.037 0 01-1.342.259c-.896 0-1.32-.613-1.273-1.838v-.707c0-.235 0-.471.142-.777a10.974 10.974 0 011.178-2.898 39.656 39.656 0 012.356-3.888c.919-1.342 1.672-2.591 2.356-3.651.683-1.061 1.343-2.003 2.356-3.417l2.874-4.076c.895-1.295 1.555-2.356 1.909-2.898.753-1.178 1.484-2.356 2.191-3.793a8.704 8.704 0 001.201-3.534 2.146 2.146 0 00-.565-1.649 3.11 3.11 0 00-2.121-.683 7.064 7.064 0 00-3.251.895 26.72 26.72 0 00-3.817 2.356c-1.296.99-2.356 1.908-3.487 2.827-1.131.919-1.955 1.862-3.086 3.016a118.08 118.08 0 00-3.087 3.251c-.918 1.013-1.578 1.767-1.931 2.239a173.154 173.154 0 014.5-9.707 252.247 252.247 0 015.183-10.061 86.937 86.937 0 006.573-2.827 77.988 77.988 0 006.833-3.628c2.12-1.272 4.382-2.71 6.479-4.17a57.589 57.589 0 005.442-4.477 22.162 22.162 0 003.817-4.594 8.763 8.763 0 001.484-4.335 5.064 5.064 0 00-.989-3.51 3.944 3.944 0 00-3.016-1.32 16.044 16.044 0 00-7.068 1.272 27.634 27.634 0 00-6.314 3.77 36.746 36.746 0 00-5.537 5.466 69.411 69.411 0 00-4.712 6.385c-1.414 2.167-2.78 4.358-3.935 6.502a271.764 271.764 0 00-3.039 5.773c-1.296.4-2.497.73-3.605.966-.905.199-1.829.302-2.756.306-.66 0-.99.118-.99.259 0 .141.259.306.801.471a3.9 3.9 0 00.825.118 11.768 11.768 0 002.238-.236 53.987 53.987 0 002.851-.636l-2.922 5.961c-.424.872-.848 1.791-1.295 2.686l-1.273.189c-.938.113-1.882.168-2.827.164a29.69 29.69 0 01-3.793-.235 3.871 3.871 0 00.589-1.932 3.101 3.101 0 00-1.155-2.356 4.711 4.711 0 00-3.227-.99 11.619 11.619 0 00-5.914 1.932 28.145 28.145 0 00-5.772 4.547 28.971 28.971 0 00-3.464 4.312 23.198 23.198 0 00-2.356 4.83 16.508 16.508 0 00-.895 5.277 8.656 8.656 0 001.696 5.514 5.095 5.095 0 004.123 1.979 9.435 9.435 0 005.019-1.65 22.59 22.59 0 004.995-4.264 24.119 24.119 0 003.793-5.749 14.14 14.14 0 001.461-6.055 6.098 6.098 0 00-.896-3.487l.731-.353a3 3 0 00.683 0h.895c.99 0 2.097 0 3.346-.189 1.249-.188 2.356-.282 3.557-.494h.142c-.542 1.154-1.108 2.356-1.649 3.51-1.178 2.545-2.356 4.924-3.299 7.068-.942 2.144-1.814 4.005-2.356 5.396-.152.317-.24.661-.259 1.013 0 .942.377 1.437 1.225 1.46.391.007.772-.117 1.084-.353.456-.356.82-.817 1.06-1.343a31.606 31.606 0 013.181-5.042 61.426 61.426 0 014.264-5.018c1.532-1.602 2.969-3.087 4.359-4.43 1.39-1.343 2.544-2.356 3.463-3.227 2.403-1.948 3.974-2.914 4.712-2.898.283 0 .424.212.424.612a8.397 8.397 0 01-1.154 3.016 19.597 19.597 0 01-1.272 2.144c-.566.895-1.202 1.861-1.885 2.874l-1.791 2.733-1.107 1.65c-.99 1.46-2.097 3.133-3.299 5.065a45.72 45.72 0 00-3.18 5.843 13.865 13.865 0 00-1.461 5.348 5.629 5.629 0 00.707 3.322 3.343 3.343 0 002.921 1.272 6.497 6.497 0 003.393-1.083 23.586 23.586 0 003.817-2.851c1.296-1.131 2.356-2.238 3.463-3.298 1.107-1.061 1.814-1.956 2.804-3.11l2.756-3.252 1.131-1.319a22.988 22.988 0 00-.589 4.194v3.039c.03 2.333.752 4.604 2.074 6.526a4.973 4.973 0 004.712 2.003 12.99 12.99 0 006.644-2.356 33.35 33.35 0 005.701-5.136 41.19 41.19 0 002.969-3.723l2.898-4.1a72.757 72.757 0 012.356-3.251l.212-.283a46.916 46.916 0 00-1.508 10.155c0 .118.306.188.801.188.943 0 2.474-.188 2.615-.494a16.655 16.655 0 011.909-5.16c2.05-2.356 4.712-8.67 7.068-12.581 2.356-3.911 6.031-9.26 7.445-9.189 2.356.118-6.809 21.016-6.385 25.799 0 1.036.683 1.366 1.861 1.366a4.149 4.149 0 002.356-.612c.118-.189.801-1.791 1.862-4.029.235-.566.565-1.107.801-1.744.235-.636.306-.612.495-.989a129.504 129.504 0 012.544-5.278 77.364 77.364 0 013.958-7.068 22.517 22.517 0 012.121-2.921c.188-.236.306-.424.494-.495a.897.897 0 01.425-.424 1.91 1.91 0 011.201-.566c1.484.236-4.524 14.137-7.634 27.967-.494 2.049-.801 3.84-1.06 5.513-.118.871-.235 1.625-.306 2.356-.071.73-.118 1.484-.188 2.167a12.225 12.225 0 000 1.555c-.064.934-.064 1.87 0 2.804.017.371.056.741.117 1.107.08.437.182.87.307 1.296.135.536.324 1.057.565 1.555.683 1.367 1.367 2.05 2.662 2.168h.189a4.365 4.365 0 002.968-1.744 7.061 7.061 0 00-2.214-.306.475.475 0 01-.259 0 .194.194 0 01-.189 0c-.235-.141-.377-.683-.377-1.626v-.754a25.95 25.95 0 01.236-4.288c.07-.259.118-.589.165-.919zm-43.351-29.992a75.138 75.138 0 013.062-5.018 25.95 25.95 0 013.346-4.123 5.365 5.365 0 013.251-1.767 1.36 1.36 0 011.273.494c.309.401.49.885.518 1.39a6.307 6.307 0 01-.613 2.875 8.649 8.649 0 01-2.356 3.157 65.597 65.597 0 01-2.214 2.003c-.919.801-1.909 1.555-2.993 2.356a33.156 33.156 0 01-3.133 2.026 7.088 7.088 0 01-2.521 1.013c.66-1.249 1.437-2.71 2.38-4.406zm-12.299-32.443a59.662 59.662 0 013.487-4.005 41.623 41.623 0 014.359-4.005 22.91 22.91 0 014.712-3.04 9.87 9.87 0 014.712-1.06c.989 0 1.578.236 1.767.707.174.434.262.899.259 1.367a8.73 8.73 0 01-1.272 4.076 19.915 19.915 0 01-3.346 4.24 39.88 39.88 0 01-4.712 4.171 80.52 80.52 0 01-5.796 3.934c-2.026 1.249-4.076 2.356-6.149 3.464a72.057 72.057 0 01-6.149 2.921 90.576 90.576 0 018.128-12.77zm-27.566 24.433c-1.437-.213-2.78-.425-4.005-.684a1.034 1.034 0 00-.942.165.888.888 0 00-.401.801c-.01.322.089.638.283.896l.942.683c.413.202.861.322 1.32.353a.278.278 0 00.212 0c.183.246.29.542.306.848.025.408.025.818 0 1.226v.777c.022.29.022.582 0 .872a23.256 23.256 0 01-1.437 5.23 26.608 26.608 0 01-2.71 5.183 15.26 15.26 0 01-3.534 3.794 6.568 6.568 0 01-3.934 1.46 2.123 2.123 0 01-2.05-1.366 7.712 7.712 0 01-.636-3.251c.012-1.407.194-2.807.542-4.171.318-1.257.76-2.481 1.319-3.651a40.853 40.853 0 012.662-4.595 45.055 45.055 0 013.299-4.311 19.502 19.502 0 013.44-3.205 5.94 5.94 0 013.392-1.225c1.791 0 2.686.589 2.686 1.791a4.714 4.714 0 01-.754 2.38zm170.839 8.602c-.165 0-.354.141-.613.448a56.064 56.064 0 01-4.971 5.206c-.456.393-1.092.911-1.909 1.555a26.058 26.058 0 01-2.356 1.744 4.195 4.195 0 01-1.979.801c-.4 0-.589-.33-.589-.966.063-1.095.285-2.174.66-3.204.448-1.39.99-2.875 1.649-4.477.66-1.602 1.273-3.063 1.932-4.453l1.485-3.275c.353-.754.801-1.767 1.342-3.015a9.702 9.702 0 00.825-3.841 2.635 2.635 0 00-.966-2.356 3.986 3.986 0 00-2.356-.659 7.95 7.95 0 00-3.722 1.036 15.526 15.526 0 00-4.406 3.864l-2.356 2.827a54.302 54.302 0 00-3.982 5.207c-.966 1.485-1.72 2.615-2.356 3.346a39.25 39.25 0 011.602-3.275c.73-1.343 1.484-2.733 2.356-4.241.872-1.508 1.673-2.898 2.474-4.241.801-1.343 1.461-2.356 2.003-3.275a4.698 4.698 0 00.659-1.696c0-.542-.377-.825-1.107-.825a5.591 5.591 0 00-2.757.919 5.948 5.948 0 00-2.238 2.215 184.456 184.456 0 00-4.712 10.249c-1.178 2.827-2.356 5.466-3.652 8.034l-.188.212-1.485 1.578a40.62 40.62 0 01-3.133 3.228 14.414 14.414 0 01-3.275 2.356c-.468.309-1 .51-1.555.589-.495 0-.754-.33-.754-.966a9.426 9.426 0 011.06-3.44c.33-.777.872-1.908 1.602-3.345.731-1.437 1.485-2.945 2.356-4.524l2.356-4.288a60.587 60.587 0 001.32-2.568.712.712 0 00-.069-.835.712.712 0 00-.237-.178 3.145 3.145 0 00-1.485-.33 4.048 4.048 0 00-1.413.236 1.646 1.646 0 00-.966.659c-.354.495-.801 1.178-1.343 2.003l-2.686 3.134a92.544 92.544 0 01-3.652 4.052 31.406 31.406 0 01-3.558 3.322 7.258 7.258 0 01-3.722 1.932c-.754 0-1.131-.471-1.131-1.414.121-1.193.448-2.357.966-3.439a38.295 38.295 0 013.063-5.655 34.814 34.814 0 014.712-5.725 35.29 35.29 0 014.712-4.1 7.636 7.636 0 014.311-1.696 3.326 3.326 0 013.134 2.521c.188.589.518.895.966.895.448 0 .895-.353.895-1.036a2.353 2.353 0 00-1.131-1.932 9.572 9.572 0 00-2.827-1.602 8.696 8.696 0 00-2.898-.495 11.544 11.544 0 00-5.961 1.908 28.41 28.41 0 00-5.866 4.712 38.034 38.034 0 00-4.712 5.937 25.31 25.31 0 00-2.003 4.241c-.31.81-.547 1.646-.707 2.498a2.855 2.855 0 01-.353.4l-1.484 1.579c-.503.55-1.233 1.335-2.192 2.356a30.33 30.33 0 01-2.968 2.615 4.908 4.908 0 01-2.733 1.155 1.608 1.608 0 01-1.508-.684 3.302 3.302 0 01-.424-1.79 13.474 13.474 0 011.201-4.972 55.406 55.406 0 012.969-6.102c1.202-2.144 2.356-4.217 3.699-6.267l3.299-5.348a1.324 1.324 0 000-.848c0-.448-.401-.66-1.202-.66a6.275 6.275 0 00-2.356.566 3.155 3.155 0 00-1.791 1.508c-.141.306-.518.918-1.107 1.861a127.45 127.45 0 00-1.861 3.063l-1.72 2.827a100.372 100.372 0 00-1.979 3.746 78.074 78.074 0 00-1.932 4.406 23.924 23.924 0 00-1.155 3.746c0 .683-.165 1.296-.188 1.885-2.003 3.604-4.712 8.434-6.244 11.78-.871 1.673-1.908 4.029-3.039 6.385-.236.495-.424.989-.683 1.484-.424.942-.919 1.932-1.367 2.851.726.13 1.437.336 2.121.612a63.714 63.714 0 002.356-4.9c1.248-2.592 2.474-5.443 3.722-8.435.684-1.672 1.296-3.157 1.862-4.382.188-.448.377-.825.565-1.178.283-.73.565-1.343.848-1.908a3.462 3.462 0 003.699 3.11 8.277 8.277 0 005.443-2.097 37.272 37.272 0 004.311-4.312 63.536 63.536 0 001.72-1.932 4.334 4.334 0 00.966 2.827 4.12 4.12 0 003.275 1.273 7.87 7.87 0 004.712-1.579 21.693 21.693 0 004.052-3.911c1.249-1.555 2.356-3.133 3.464-4.712a20.4 20.4 0 01-.825 2.05l-1.296 2.874a70.155 70.155 0 00-1.178 2.639 14.615 14.615 0 00-.683 1.696 11.27 11.27 0 00-.448 2.992c0 2.569.99 3.864 2.969 3.864a6.027 6.027 0 002.568-.73 14.432 14.432 0 003.11-2.356c.589-.565 1.178-1.131 1.744-1.767.565-.636 1.13-1.249 1.672-1.885l.307-.353a3.032 3.032 0 000 .447c-.011.486.147.961.447 1.343a1.367 1.367 0 00.966.519c.613 0 1.131-.401 1.579-1.202a45.686 45.686 0 012.568-4.17 177.441 177.441 0 013.934-5.608 156.454 156.454 0 014.359-5.701l2.757-3.416a15.598 15.598 0 013.204-3.205 3.823 3.823 0 012.144-.966 1.113 1.113 0 011.013.589c.237.492.35 1.034.33 1.579a12.154 12.154 0 01-1.296 4.853c-.872 1.932-1.885 3.935-3.016 6.079-1.131 2.144-2.144 4.217-3.015 6.244a14.117 14.117 0 00-1.296 5.442 4.71 4.71 0 00.518 2.356 1.863 1.863 0 001.791.966h.589c.195.022.393.022.589 0 .268-.058.528-.144.777-.259.33-.118.683-.283 1.084-.471a28.587 28.587 0 004.217-2.828 34.782 34.782 0 003.44-3.275 38.634 38.634 0 002.026-2.356c.507-.625.979-1.278 1.414-1.955l.4-.825c.1-.182.164-.382.189-.589-.094-.589-.165-.73-.306-.73z" fill="#252525"/></svg>