<svg width="140" height="52" fill="none" xmlns="http://www.w3.org/2000/svg"><path d="M16.75 26.19c.75-.011 1.497-.087 2.234-.225a17.354 17.354 0 002.724-.717 11.9 11.9 0 002.613-1.23 7.068 7.068 0 001.966-1.843 4.17 4.17 0 00.759-2.469 3.075 3.075 0 00-.871-2.253 5.511 5.511 0 00-2.233-1.291 9.457 9.457 0 00-2.879-.44c.814-.06 1.618-.212 2.397-.451a21.04 21.04 0 003.135-1.148 18.325 18.325 0 003.073-1.762 10.016 10.016 0 002.366-2.325c.591-.817.91-1.799.912-2.807a4.446 4.446 0 00-1.024-2.98 4.518 4.518 0 00-3.627-1.26 15.53 15.53 0 00-3.636.48 83.35 83.35 0 00-3.934 1.025 24.257 24.257 0 01-3.636.676c-.072.195-.144.359-.195.513a1.348 1.348 0 00-.072.43.584.584 0 00.215.471c.245.152.534.217.82.184a6.453 6.453 0 001.598-.184c.481-.123.737-.154.758-.102a7.24 7.24 0 01-.87 2.345 32.422 32.422 0 01-1.64 2.633 55.492 55.492 0 00-1.833 2.827 148.513 148.513 0 00-2.05 3.473 30.737 30.737 0 00-1.628 3.33 7.1 7.1 0 00-.625 2.396 2.56 2.56 0 00.605 1.875c.423.396.954.66 1.526.758a9.91 9.91 0 001.803.164l1.25-.093zm1.967-12.24c.39-.687.79-1.435 1.199-2.234A22.55 22.55 0 0020.94 9.33a5.92 5.92 0 00.44-2.048 2.202 2.202 0 00-.225-1.076 75.103 75.103 0 003.657-.758 16.196 16.196 0 013.627-.43c2.284 0 3.431.563 3.431 1.68a3.78 3.78 0 01-1.024 2.427 13.627 13.627 0 01-2.715 2.346 27.873 27.873 0 01-3.575 2.049 31.061 31.061 0 01-3.718 1.475c-.993.345-2.026.566-3.073.656.245-.472.553-1.014.952-1.7zm-5.316 10.243c.037-.856.283-1.69.717-2.428a32.063 32.063 0 011.65-2.755 32.114 32.114 0 001.485-2.459c.281-.037.565-.058.85-.061h1.24c.837 0 1.672.069 2.499.205a5.296 5.296 0 012.233.84 2.223 2.223 0 01.912 1.946 3.073 3.073 0 01-.82 1.915 10.245 10.245 0 01-2.049 1.906 12.42 12.42 0 01-2.745 1.465 7.899 7.899 0 01-2.766.553 6.473 6.473 0 01-2.581-.328c-.43-.256-.625-.512-.625-.81v.01zm74.194-12.23c.264.018.525-.066.728-.236a1.26 1.26 0 00.4-.696.82.82 0 00-.84-1.025 1.096 1.096 0 00-.77.338 1.022 1.022 0 00-.358.82c0 .563.277.799.84.799zM7.99 42.355l-.195-.071a4.323 4.323 0 001.762-1.608 4.446 4.446 0 00.625-2.397 3.82 3.82 0 00-1.516-3.36 6.986 6.986 0 00-4.159-1.086H0V51.38h5.224a8.449 8.449 0 002.162-.276 5.776 5.776 0 001.864-.871 4.331 4.331 0 001.311-1.537 4.712 4.712 0 00.482-2.243 3.831 3.831 0 00-.82-2.469 5.419 5.419 0 00-2.233-1.629zm-5.634-6.258H4.64a3.77 3.77 0 012.285.624 2.356 2.356 0 01.84 2.05 3.073 3.073 0 01-.646 1.976 2.561 2.561 0 01-2.11.81H2.356v-5.46zM8.174 48.01a2.91 2.91 0 01-1.29.901 5.512 5.512 0 01-1.783.287H2.356V43.79h2.602a6.211 6.211 0 011.741.245 3.12 3.12 0 011.404.84c.38.447.575 1.023.543 1.609a2.459 2.459 0 01-.472 1.526zm18.6-2.838a4.004 4.004 0 01-.564 2.12 3.891 3.891 0 01-1.526 1.466 4.477 4.477 0 01-2.213.532 4.22 4.22 0 01-2.13-.532 4.098 4.098 0 01-2.049-3.586v-11.34h-2.366v11.412a6.3 6.3 0 00.87 3.35 5.88 5.88 0 002.356 2.202 6.956 6.956 0 003.32.779 7.068 7.068 0 003.339-.779 5.931 5.931 0 002.376-2.192 6.23 6.23 0 00.892-3.35V33.833h-2.305v11.34zm10.698-11.329h-2.356V51.38h11.268v-2.253h-8.912V33.843zm16.339 0h-2.356V51.38h11.258v-2.253H53.81V33.843zm26.121 2.899a8.081 8.081 0 00-2.94-2.1c-.215-.082-.43-.185-.645-.246-.215-.062-.594-.184-.912-.266a4.81 4.81 0 00-.707-.134l-.614-.082v.43a11.27 11.27 0 00-.144 1.804c.109-.016.22-.016.328 0h.082c.155.02.31.051.46.092h.226l.205.051c.091.013.181.037.266.072l.154.05.184.093c.06.033.12.06.185.082l.369.164c.487.25.941.56 1.352.922a6.732 6.732 0 011.454 2.049c.67 1.8.67 3.782 0 5.583a5.84 5.84 0 01-1.423 2.048 6.965 6.965 0 01-2.131 1.27 7.992 7.992 0 01-2.694.43H70.18V36.097h1.024a7.828 7.828 0 01-.215-2.263h-3.186V51.39h5.635a9.588 9.588 0 003.319-.594 8.46 8.46 0 002.775-1.731 7.773 7.773 0 001.916-2.694 8.738 8.738 0 00.707-3.555 9.967 9.967 0 00-.543-3.155 8.194 8.194 0 00-1.68-2.92zm22.132-.43a9.413 9.413 0 00-2.868-1.967 8.738 8.738 0 00-6.935 0 9.322 9.322 0 00-2.848 1.967 9.087 9.087 0 00-1.936 2.868 8.595 8.595 0 00-.687 3.431 8.963 8.963 0 00.687 3.545 8.627 8.627 0 001.936 2.837 8.87 8.87 0 006.33 2.572 8.655 8.655 0 003.453-.687 9.119 9.119 0 002.868-1.926 8.877 8.877 0 001.956-2.847 8.68 8.68 0 00.697-3.493 8.436 8.436 0 00-.697-3.432 9.306 9.306 0 00-1.956-2.868zm-.277 8.902a6.945 6.945 0 01-1.383 2.13 6.45 6.45 0 01-7.17 1.444 6.472 6.472 0 01-2.049-1.444 6.852 6.852 0 01-1.414-2.13 6.556 6.556 0 01-.502-2.582c-.01-.89.154-1.774.482-2.602a6.259 6.259 0 011.383-2.151 6.505 6.505 0 012.049-1.455 6.146 6.146 0 012.57-.532 6.31 6.31 0 012.551.522 6.678 6.678 0 012.049 1.434 6.79 6.79 0 011.926 4.764 6.587 6.587 0 01-.492 2.612v-.01zm16.503-.164h3.494v3.493c-.475.245-.982.42-1.506.523a8.543 8.543 0 01-1.772.184 7.936 7.936 0 01-2.756-.471 6.279 6.279 0 01-2.141-1.342 5.92 5.92 0 01-1.393-2.049 6.98 6.98 0 01-.481-2.622 7.856 7.856 0 01.481-2.807c.308-.8.783-1.527 1.393-2.13a5.987 5.987 0 012.151-1.363 7.934 7.934 0 012.817-.471c.475.003.949.055 1.414.153.495.11.984.247 1.465.41.418.131.82.31 1.198.533l.799-2.162a9.912 9.912 0 00-2.305-.922 10.395 10.395 0 00-2.837-.368 9.46 9.46 0 00-3.442.624 8.37 8.37 0 00-2.878 1.814 8.714 8.714 0 00-1.967 2.94 10.13 10.13 0 00-.717 3.923 8.949 8.949 0 00.645 3.421 7.959 7.959 0 001.844 2.735 8.525 8.525 0 002.889 1.824c1.214.454 2.503.677 3.8.655a9.775 9.775 0 001.567-.143 13.8 13.8 0 001.619-.39c.492-.15.975-.331 1.444-.542.369-.16.714-.37 1.025-.625v-7.089h-5.85v2.264zm21.35-.543a4.15 4.15 0 00-1.024-1.424 6.06 6.06 0 00-1.445-.974 18.989 18.989 0 00-1.628-.706 26.713 26.713 0 01-1.814-.779 4.665 4.665 0 01-1.413-1.024 1.939 1.939 0 01-.533-1.393 2.107 2.107 0 01.84-1.752 3.566 3.566 0 012.244-.656c.696.014 1.387.13 2.048.349.676.212 1.334.48 1.967.799l.891-1.803a10.762 10.762 0 00-2.294-1.025 9.825 9.825 0 00-2.991-.41 6.341 6.341 0 00-2.674.636 4.723 4.723 0 00-1.834 1.629 4.39 4.39 0 00-.666 2.417c-.02.676.131 1.345.441 1.946.285.526.68.983 1.157 1.342a7.876 7.876 0 001.578.922c.574.256 1.127.482 1.68.697.564.22 1.115.472 1.649.758.481.255.905.603 1.25 1.024.326.425.493.95.471 1.486a2.5 2.5 0 01-.533 1.68 3.203 3.203 0 01-1.341.932 4.606 4.606 0 01-1.639.307 5.86 5.86 0 01-1.598-.236 8.811 8.811 0 01-1.578-.604 10.057 10.057 0 01-1.342-.789l-1.024 1.844a12.28 12.28 0 001.608.881c.623.298 1.275.531 1.946.697a9.224 9.224 0 002.223.266 6.656 6.656 0 003.073-.656 4.867 4.867 0 001.977-1.792c.46-.763.698-1.64.687-2.53a5.345 5.345 0 00-.359-2.06z" fill="#252525"/><path d="M73.48 33.433v-.236c.051-.491.143-.973.225-1.464a46.633 46.633 0 011.803-7.017c1.916-5.634 2.643-7.847 2.243-9.22a.748.748 0 00-.788-.532c-.963 0-1.895-.144-2.582 1.126-.143.236-1.454 2.858-2.642 5.184l-1.67 3.175c-.195.328-.359.595-.492.84-.092.17-.199.33-.317.482-.062.082-.083.113-.113.113-.349-.052 3.995-9.763 4.046-10.705 0-.492-.553-.728-.932-.84a3.677 3.677 0 00-1.25-.113 3.08 3.08 0 00-.614.123c-.198.054-.385.14-.554.256a2.491 2.491 0 00-.297.277 9.754 9.754 0 00-.727 1.024c-.307.45-.584.912-.86 1.373-.277.46-.615 1.024-.912 1.547a101.51 101.51 0 01-.881 1.526c-.297.502-.512.86-.789 1.29a7.077 7.077 0 01-.594.861 1.41 1.41 0 01-.215.215c.4-1.024 1.946-5.665 2.049-6.044v-.082a.471.471 0 00-.164-.081 1.619 1.619 0 00-.533-.052 1.844 1.844 0 00-1.414.482 19.707 19.707 0 00-1.567 4.456l-.471.645-2.182 2.95c-.174.256-.492.635-.932 1.158-.44.522-1.024 1.024-1.567 1.639a15.027 15.027 0 01-1.814 1.506 3.678 3.678 0 01-1.7.696 1.26 1.26 0 01-1.27-.604 3.904 3.904 0 01-.461-1.64v-.306c.01-.092.01-.185 0-.277a12.1 12.1 0 01.133-1.485 13.31 13.31 0 01.318-1.619c.088-.4.233-.787.43-1.147a8.34 8.34 0 001.936-.564 14.743 14.743 0 002.95-1.782 6.086 6.086 0 001.823-2.049c.311-.56.467-1.193.451-1.833a1.557 1.557 0 00-.891-1.455 3.248 3.248 0 00-1.506-.215 5.174 5.174 0 00-2.438.901 7.866 7.866 0 00-2.223 2.305 18.331 18.331 0 00-2.13 4.18c-.062.184-.113.358-.164.532l-2.428 2.633c-.205.236-.512.553-.912.963l-1.28 1.25c-.42.373-.857.725-1.311 1.055a3.012 3.012 0 01-.943.563 1.32 1.32 0 01-.584.113c-.39 0-.573-.267-.553-.8v-.307c0-.102 0-.204.062-.338a4.78 4.78 0 01.512-1.26c.287-.543.625-1.106 1.024-1.69.4-.584.727-1.127 1.024-1.588.297-.46.584-.87 1.025-1.485l1.25-1.772c.389-.564.676-1.024.83-1.26.327-.512.645-1.024.952-1.65.283-.468.462-.992.522-1.536a.93.93 0 00-.245-.717 1.352 1.352 0 00-.922-.297 3.064 3.064 0 00-1.414.39 11.61 11.61 0 00-1.66 1.024c-.563.43-1.024.83-1.516 1.229-.491.4-.85.81-1.342 1.311-.491.502-.942.973-1.341 1.414-.4.44-.687.768-.84.973a75.392 75.392 0 011.956-4.22c.717-1.476 1.475-2.94 2.254-4.375a37.912 37.912 0 002.858-1.229 33.9 33.9 0 002.97-1.577 50.272 50.272 0 002.817-1.813c.828-.6 1.618-1.25 2.367-1.947a9.643 9.643 0 001.66-1.997c.378-.56.6-1.21.644-1.885a2.203 2.203 0 00-.43-1.526 1.711 1.711 0 00-1.31-.574 6.976 6.976 0 00-3.074.553c-.984.422-1.907.973-2.745 1.64A15.969 15.969 0 0048.7 4.576a30.196 30.196 0 00-2.048 2.776c-.615.942-1.21 1.895-1.711 2.827-.502.932-.942 1.762-1.322 2.51a18.4 18.4 0 01-1.567.42 5.677 5.677 0 01-1.198.133c-.287 0-.43.051-.43.112 0 .062.112.134.348.205.117.03.237.047.358.051.327-.003.653-.037.973-.102.37-.072.79-.164 1.24-.277l-1.27 2.592c-.185.38-.369.779-.564 1.168l-.553.082c-.408.05-.818.073-1.23.072a12.954 12.954 0 01-1.648-.103 1.68 1.68 0 00.256-.84 1.352 1.352 0 00-.502-1.024 2.049 2.049 0 00-1.404-.43 5.05 5.05 0 00-2.57.84 12.223 12.223 0 00-2.51 1.977 12.578 12.578 0 00-1.506 1.874 10.08 10.08 0 00-1.025 2.1 7.171 7.171 0 00-.389 2.295c-.036.86.225 1.706.738 2.397a2.212 2.212 0 001.792.86 4.097 4.097 0 002.182-.717 9.822 9.822 0 002.172-1.854 10.47 10.47 0 001.65-2.5c.404-.819.62-1.718.634-2.632a2.653 2.653 0 00-.389-1.516l.318-.154c.098.011.198.011.297 0h.389c.43 0 .912 0 1.455-.082.542-.082 1.024-.123 1.546-.215h.062l-.717 1.526c-.513 1.107-1.025 2.141-1.434 3.074-.41.932-.79 1.741-1.025 2.345a1.168 1.168 0 00-.112.44c0 .41.163.626.532.636a.758.758 0 00.471-.154c.199-.155.357-.355.461-.584.391-.772.854-1.506 1.383-2.192a26.714 26.714 0 011.854-2.182 68.754 68.754 0 011.896-1.925c.604-.584 1.106-1.025 1.505-1.404 1.045-.847 1.728-1.267 2.049-1.26.123 0 .184.092.184.267-.08.465-.25.91-.502 1.31a8.414 8.414 0 01-.553.933c-.246.39-.522.81-.82 1.25l-.778 1.188-.481.717c-.43.635-.912 1.362-1.434 2.202a19.854 19.854 0 00-1.383 2.54 6.034 6.034 0 00-.635 2.326 2.449 2.449 0 00.307 1.444 1.455 1.455 0 001.27.554A2.827 2.827 0 0044.787 30c.594-.356 1.15-.77 1.66-1.24.563-.49 1.024-.972 1.506-1.433.481-.461.788-.85 1.219-1.352l1.198-1.414.492-.574a10.004 10.004 0 00-.256 1.824v1.322a5.122 5.122 0 00.901 2.838 2.162 2.162 0 002.049.87 5.644 5.644 0 002.889-1.024 14.5 14.5 0 002.479-2.233 17.95 17.95 0 001.29-1.619l1.26-1.782a31.63 31.63 0 011.025-1.414l.092-.122a20.39 20.39 0 00-.656 4.415c0 .05.133.081.348.081.41 0 1.076-.082 1.138-.215.15-.788.43-1.546.83-2.243.89-1.024 2.048-3.77 3.072-5.47 1.025-1.7 2.623-4.026 3.237-3.995 1.025.051-2.96 9.137-2.776 11.217 0 .45.297.594.81.594.36.016.717-.077 1.024-.267.051-.081.348-.778.81-1.751.102-.246.245-.482.347-.758.103-.277.134-.267.216-.43.328-.728.707-1.506 1.106-2.295a33.585 33.585 0 011.72-3.073c.274-.448.582-.872.923-1.27.082-.103.133-.185.215-.216a.389.389 0 01.184-.184.83.83 0 01.523-.246c.645.103-1.967 6.146-3.32 12.16-.214.89-.347 1.67-.46 2.396-.051.38-.103.707-.133 1.025-.031.317-.051.645-.082.942a5.445 5.445 0 000 .676 8.92 8.92 0 000 1.22c.007.16.024.322.051.48a6 6 0 00.133.564c.059.233.141.46.246.676.297.594.594.892 1.157.943h.082a1.894 1.894 0 001.291-.758 3.072 3.072 0 00-.963-.134.204.204 0 01-.112 0 .082.082 0 01-.082 0c-.103-.06-.164-.297-.164-.706v-.328c-.018-.623.017-1.247.102-1.864.03-.113.051-.256.072-.4zm-18.85-13.04c.41-.738.85-1.455 1.332-2.182a11.27 11.27 0 011.455-1.793 2.335 2.335 0 011.413-.768.595.595 0 01.554.215c.134.174.213.385.225.604.01.432-.08.86-.266 1.25-.232.53-.582 1-1.025 1.373a27.56 27.56 0 01-.963.87c-.4.349-.83.677-1.3 1.025-.438.319-.893.613-1.363.88a3.073 3.073 0 01-1.096.441c.287-.543.625-1.178 1.035-1.915zM49.285 6.287c.43-.543.933-1.127 1.516-1.741a18.094 18.094 0 011.895-1.742 9.969 9.969 0 012.05-1.321 4.292 4.292 0 012.048-.461c.43 0 .686.102.768.307.076.19.114.391.113.594a3.79 3.79 0 01-.553 1.773 8.654 8.654 0 01-1.455 1.843 17.34 17.34 0 01-2.049 1.814 34.977 34.977 0 01-2.52 1.71 49.272 49.272 0 01-2.673 1.506c-.902.482-1.813.912-2.674 1.27a39.369 39.369 0 013.534-5.552zM37.3 16.91a29.08 29.08 0 01-1.741-.297.451.451 0 00-.41.072.39.39 0 00-.174.348.615.615 0 00.123.39l.41.296c.179.088.374.14.573.154.03.012.063.012.092 0 .08.107.127.235.134.369.01.177.01.355 0 .532v.338c.01.127.01.253 0 .38a10.1 10.1 0 01-.625 2.273 11.578 11.578 0 01-1.178 2.254 6.637 6.637 0 01-1.537 1.65 2.858 2.858 0 01-1.71.634.922.922 0 01-.892-.594 3.35 3.35 0 01-.276-1.413 7.6 7.6 0 01.235-1.813c.139-.547.33-1.08.574-1.588a17.88 17.88 0 011.157-1.998c.44-.653.92-1.279 1.434-1.874a8.479 8.479 0 011.496-1.393c.425-.327.94-.513 1.475-.533.779 0 1.168.256 1.168.778a2.049 2.049 0 01-.328 1.035zm74.277 3.739c-.072 0-.154.061-.267.195-.671.8-1.393 1.556-2.161 2.264-.198.17-.475.396-.83.676a11.67 11.67 0 01-1.024.758 1.825 1.825 0 01-.861.348c-.174 0-.256-.143-.256-.42.027-.476.124-.945.287-1.393.195-.605.43-1.25.717-1.947.287-.696.553-1.331.84-1.936l.645-1.424c.154-.327.349-.768.584-1.31a4.23 4.23 0 00.359-1.67 1.143 1.143 0 00-.42-1.025 1.734 1.734 0 00-1.025-.287 3.46 3.46 0 00-1.618.451 6.742 6.742 0 00-1.916 1.68l-1.024 1.23a23.65 23.65 0 00-1.731 2.263c-.42.646-.748 1.137-1.025 1.455.154-.359.379-.84.697-1.424.318-.584.645-1.188 1.024-1.844.379-.655.728-1.26 1.076-1.844.348-.584.635-1.024.871-1.424.142-.225.24-.475.286-.737 0-.236-.163-.359-.481-.359a2.432 2.432 0 00-1.199.4c-.405.227-.741.56-.973.963a80.251 80.251 0 00-2.048 4.456 52.864 52.864 0 01-1.588 3.493l-.082.092-.645.686c-.428.493-.883.962-1.363 1.404a6.271 6.271 0 01-1.424 1.024 1.649 1.649 0 01-.676.256c-.215 0-.328-.143-.328-.42a4.097 4.097 0 01.461-1.495c.144-.338.38-.83.697-1.455.317-.625.645-1.28 1.024-1.967l1.025-1.864c.297-.553.481-.922.573-1.117a.308.308 0 00-.133-.44c-.2-.1-.422-.15-.645-.144a1.763 1.763 0 00-.615.103.717.717 0 00-.42.287c-.154.215-.348.512-.584.87l-1.168 1.363a40.379 40.379 0 01-1.587 1.762 13.67 13.67 0 01-1.547 1.444 3.155 3.155 0 01-1.619.84c-.327 0-.491-.205-.491-.615a4.528 4.528 0 01.42-1.495c.374-.856.82-1.678 1.331-2.459a15.19 15.19 0 012.05-2.489 15.369 15.369 0 012.048-1.782 3.319 3.319 0 011.874-.738 1.445 1.445 0 011.363 1.096c.082.256.225.39.42.39.195 0 .39-.154.39-.451a1.025 1.025 0 00-.493-.84 4.17 4.17 0 00-1.229-.697 3.792 3.792 0 00-1.26-.215 5.02 5.02 0 00-2.591.83 12.34 12.34 0 00-2.551 2.049 16.54 16.54 0 00-2.049 2.581 10.996 10.996 0 00-.87 1.844 6.27 6.27 0 00-.308 1.086 1.246 1.246 0 01-.153.174l-.646.686c-.218.24-.536.58-.953 1.024-.404.407-.836.787-1.29 1.138a2.13 2.13 0 01-1.188.502.696.696 0 01-.656-.297 1.434 1.434 0 01-.184-.78 5.86 5.86 0 01.522-2.16c.375-.91.806-1.796 1.29-2.654.523-.932 1.025-1.833 1.609-2.724l1.434-2.326a.582.582 0 000-.369c0-.194-.174-.286-.522-.286a2.736 2.736 0 00-1.025.245 1.374 1.374 0 00-.778.656c-.062.133-.226.4-.482.81-.256.41-.532.86-.809 1.331l-.748 1.23c-.252.45-.54.993-.86 1.628a34.08 34.08 0 00-.84 1.916 10.38 10.38 0 00-.502 1.628c0 .297-.072.564-.082.82-.87 1.567-2.049 3.667-2.715 5.122-.379.727-.83 1.751-1.321 2.776-.103.215-.185.43-.297.645-.185.41-.4.84-.594 1.24.315.056.624.145.922.266.348-.645.696-1.373 1.024-2.13a76.137 76.137 0 001.618-3.668c.297-.727.564-1.373.81-1.905a6.04 6.04 0 01.246-.512c.123-.318.245-.584.368-.83a1.506 1.506 0 001.609 1.352 3.595 3.595 0 002.366-.912c.675-.572 1.302-1.2 1.874-1.874.256-.277.513-.564.748-.84-.01.446.139.882.42 1.229a1.793 1.793 0 001.424.553 3.42 3.42 0 002.049-.686 9.444 9.444 0 001.762-1.7c.543-.677 1.024-1.363 1.506-2.05a9.175 9.175 0 01-.359.892l-.563 1.25c-.195.42-.37.799-.513 1.147-.114.24-.213.486-.297.737-.123.423-.188.86-.194 1.301 0 1.117.43 1.68 1.29 1.68.392-.02.773-.13 1.117-.317.495-.28.95-.624 1.352-1.025.256-.246.512-.491.758-.768s.492-.543.727-.82l.134-.153a1.27 1.27 0 000 .195.912.912 0 00.194.583.595.595 0 00.42.226c.267 0 .492-.174.687-.523.34-.624.712-1.229 1.116-1.813a77.133 77.133 0 011.711-2.438c.635-.87 1.27-1.7 1.895-2.479l1.198-1.485c.395-.53.864-1 1.394-1.393.258-.235.585-.382.932-.42a.483.483 0 01.44.256c.103.213.153.45.144.686a5.284 5.284 0 01-.564 2.11c-.379.84-.819 1.711-1.311 2.643a38.124 38.124 0 00-1.311 2.715 6.133 6.133 0 00-.563 2.366c-.016.355.062.708.225 1.024a.804.804 0 00.778.42h.256c.086.01.171.01.257 0 .116-.024.229-.062.338-.112.143-.052.297-.123.471-.205.646-.355 1.26-.766 1.833-1.23a15.18 15.18 0 001.496-1.423c.307-.328.594-.666.881-1.025a9.53 9.53 0 00.615-.85l.174-.358a.723.723 0 00.082-.256c-.041-.256-.072-.318-.133-.318z" fill="#252525"/></svg>