<svg width="1920" height="2305" fill="none" xmlns="http://www.w3.org/2000/svg"><path fill="url(#paint0_linear)" d="M0 267h1920v2038H0z"/><g clip-path="url(#clip0)"><circle cx="485.5" cy="317.5" r="157.5" fill="url(#paint1_linear)"/></g><circle cx="1948.5" cy="754.5" r="283.5" fill="url(#paint2_linear)"/><circle cx="-42.5" cy="1567.5" r="283.5" fill="url(#paint3_linear)"/><g opacity=".4"><path d="M1920 0v267H587C587 119.54 706.54 0 854 0h1066z" fill="url(#paint4_linear)"/><path d="M1920 0v267H587C587 119.54 706.54 0 854 0h1066z" fill="url(#paint5_radial)"/><path d="M1920 0v267H587C587 119.54 706.54 0 854 0h1066z" fill="url(#paint6_radial)" fill-opacity=".5"/></g><defs><linearGradient id="paint0_linear" x1="960" y1="267" x2="960" y2="2305" gradientUnits="userSpaceOnUse"><stop offset=".495" stop-color="#F3F7FE"/><stop offset="1" stop-color="#ECF0FA" stop-opacity="0"/></linearGradient><linearGradient id="paint1_linear" x1="485.5" y1="160" x2="485.5" y2="475" gradientUnits="userSpaceOnUse"><stop stop-color="#B1DDF8"/><stop offset="1" stop-color="#B1DDF8" stop-opacity="0"/></linearGradient><linearGradient id="paint2_linear" x1="1948.5" y1="471" x2="1948.5" y2="1038" gradientUnits="userSpaceOnUse"><stop stop-color="#B1DDF8"/><stop offset="1" stop-color="#B1DDF8" stop-opacity="0"/></linearGradient><linearGradient id="paint3_linear" x1="-42.5" y1="1284" x2="-42.5" y2="1851" gradientUnits="userSpaceOnUse"><stop stop-color="#B089E3"/><stop offset="1" stop-color="#B089E3" stop-opacity="0"/></linearGradient><linearGradient id="paint4_linear" x1="1920" y1="133.5" x2="587" y2="133.5" gradientUnits="userSpaceOnUse"><stop stop-color="#6A73CE"/><stop offset="1" stop-color="#A6D2FA"/></linearGradient><radialGradient id="paint5_radial" cx="0" cy="0" r="1" gradientUnits="userSpaceOnUse" gradientTransform="rotate(-2.764 5513.485 -15214.324) scale(667.254 476.613)"><stop stop-color="#CC98E5"/><stop offset="1" stop-color="#CC98E5" stop-opacity="0"/></radialGradient><radialGradient id="paint6_radial" cx="0" cy="0" r="1" gradientUnits="userSpaceOnUse" gradientTransform="rotate(-170.562 629.63 104.507) scale(381.922 280.848)"><stop stop-color="#B3E7FC"/><stop offset="1" stop-color="#B3E7FC" stop-opacity="0"/></radialGradient><clipPath id="clip0"><path fill="#fff" transform="translate(328 267)" d="M0 0h315v208H0z"/></clipPath></defs></svg>