<svg width="90" height="90" fill="none" xmlns="http://www.w3.org/2000/svg"><rect width="90" height="90" rx="25" fill="#6AA7E6"/><path d="M58.392 41.594c-.537-.132-.991-.567-.991-1.12v-6.257c0-.573-.464-1.037-1.037-1.037h-6.258c-.552 0-.988-.455-1.12-.991a4.15 4.15 0 00-8.056 0c-.132.536-.567.99-1.12.99h-6.257c-.573 0-1.037.465-1.037 1.038v6.355c0 .528.509.91 1.037.903a4.148 4.148 0 010 8.295c-.528-.007-1.037.374-1.037.902v6.356c0 .572.464 1.037 1.037 1.037h6.355c.528 0 .91-.51.903-1.037a4.148 4.148 0 018.295 0c-.007.528.375 1.037.903 1.037h6.355c.573 0 1.037-.465 1.037-1.037V50.77c0-.553.454-.988.99-1.12a4.15 4.15 0 000-8.056z" fill="#fff"/></svg>