<svg width="90" height="90" fill="none" xmlns="http://www.w3.org/2000/svg"><rect width="90" height="90" rx="25" fill="#6AA7E6"/><path d="M54.363 39.847a9.072 9.072 0 00-9.072-9.073h-.002a9.072 9.072 0 00-9.071 9.073 9.077 9.077 0 006.465 8.692c.456.137.793.54.793 1.016v1.993a1 1 0 01-1 1h-1.629a1 1 0 00-1 1v1.63a1 1 0 001 1h1.629a1 1 0 011 1v1.629a1 1 0 001 1h1.63a1 1 0 001-1v-1.63a1 1 0 011-1h1.628a1 1 0 001-1v-1.629a1 1 0 00-1-1h-1.629a1 1 0 01-1-1v-1.993c0-.475.337-.88.793-1.016a9.077 9.077 0 006.465-8.692zm-9.072 5.443h-.002a5.444 5.444 0 010-10.887h.002a5.443 5.443 0 110 10.887z" fill="#fff"/></svg>