<svg width="90" height="90" fill="none" xmlns="http://www.w3.org/2000/svg"><rect width="90" height="90" rx="25" fill="#B089E3"/><path d="M43.87 52H32.956v-2.363l5.027-5.285c1.24-1.411 1.859-2.532 1.859-3.363 0-.673-.147-1.185-.44-1.536-.294-.35-.72-.526-1.279-.526-.551 0-.999.236-1.343.709-.343.465-.515 1.049-.515 1.75h-3.631c0-.959.24-1.843.72-2.653a5.035 5.035 0 011.998-1.912c.852-.458 1.804-.687 2.857-.687 1.69 0 2.99.39 3.9 1.17.916.781 1.374 1.902 1.374 3.363 0 .616-.114 1.217-.343 1.805-.23.58-.588 1.192-1.075 1.837-.48.637-1.256 1.493-2.33 2.567l-2.02 2.331h6.155V52zm13.567-6.392c0 2.113-.477 3.742-1.43 4.888-.944 1.146-2.28 1.719-4.006 1.719-1.74 0-3.087-.577-4.039-1.73-.952-1.153-1.429-2.778-1.429-4.877v-2.857c0-2.113.473-3.742 1.418-4.888.953-1.146 2.295-1.718 4.029-1.718 1.733 0 3.076.576 4.028 1.729.952 1.153 1.429 2.782 1.429 4.888v2.846zm-3.62-3.319c0-1.124-.147-1.962-.44-2.514-.294-.558-.76-.837-1.397-.837-.623 0-1.078.257-1.365.773-.279.516-.43 1.296-.45 2.342v3.996c0 1.167.146 2.023.44 2.567.293.537.759.806 1.396.806.616 0 1.07-.261 1.364-.784.294-.53.444-1.357.451-2.482V42.29z" fill="#fff"/><path stroke="#fff" stroke-width="2" stroke-linecap="round" d="M29.586 30L26 26.414M29.586 59L26 62.586M61.414 30L65 26.414M61.414 59L65 62.586"/></svg>