<svg width="90" height="90" fill="none" xmlns="http://www.w3.org/2000/svg"><rect width="90" height="90" rx="25" fill="#6AA7E6"/><path d="M48.664 39.721a8.945 8.945 0 10-17.89 0 8.945 8.945 0 0017.89 0zm-8.945 6.182v-1.7c2.47 0 4.481-2.01 4.481-4.482h1.701a6.189 6.189 0 01-6.182 6.182z" fill="#fff"/><path d="M50.863 41.916c-.246 0-.489.01-.73.03a10.608 10.608 0 01-2.885 5.303 10.612 10.612 0 01-5.3 2.885 8.945 8.945 0 108.915-8.218zm0 15.127v-1.701c2.47 0 4.48-2.01 4.48-4.48h1.702a6.189 6.189 0 01-6.182 6.181z" fill="#fff"/></svg>