<svg width="90" height="90" fill="none" xmlns="http://www.w3.org/2000/svg"><rect width="90" height="90" rx="25" fill="#B089E3"/><path d="M30.386 35.31h2.856v-1.814c0-.898-.633-1.814-1.815-1.814-1 0-1.814.814-1.814 1.814v1.042c0 .427.346.773.773.773zm28.376-3.628c-.968 0-1.815.762-1.815 1.814v1.815h2.856a.773.773 0 00.773-.773v-1.041c0-1-.814-1.815-1.814-1.815zM46.106 41.48l-1.011-1.685-1.01 1.685a.907.907 0 01-.575.417l-1.914.44 1.289 1.482c.162.186.24.43.22.675l-.172 1.958 1.807-.769a.905.905 0 01.71 0l1.807.769-.171-1.958a.907.907 0 01.22-.675l1.288-1.482-1.914-.44a.907.907 0 01-.574-.417z" fill="#fff"/><path d="M57.274 30.848a.712.712 0 00-.327-.073H33.242a.64.64 0 00-.308.073 2.707 2.707 0 012.122 2.649v25.4c0 .707.746 1.136 1.38.78l8.66-5.171 8.66 5.17c.556.348 1.378-.026 1.378-.78v-25.4c0-1.306.907-2.394 2.141-2.648zm-6.32 11.54l-2.028 2.332.27 3.08a.907.907 0 01-1.258.913l-2.844-1.209-2.843 1.21a.907.907 0 01-1.26-.915l.272-3.08-2.029-2.33a.907.907 0 01.48-1.48l3.012-.693 1.59-2.65c.328-.546 1.228-.546 1.556 0l1.59 2.65 3.012.693c.67.155.928.967.48 1.48z" fill="#fff"/></svg>