<svg width="90" height="90" fill="none" xmlns="http://www.w3.org/2000/svg"><rect width="90" height="90" rx="25" fill="#B089E3"/><path d="M48.692 46.14v13.666h6.805c1.407 0 2.608-1.144 2.608-2.551V46.14h-9.413zm-16.217 0v11.115a2.555 2.555 0 002.552 2.551h6.861V46.141h-9.413z" fill="#fff"/><path d="M57.255 37.579h-3.48a4.217 4.217 0 00.872-2.552 4.258 4.258 0 00-4.253-4.253c-2.968 0-3.828 2.138-5.104 5.376-1.276-3.238-2.135-5.376-5.103-5.376a4.258 4.258 0 00-4.253 4.253c0 .961.333 1.839.873 2.552h-3.481a2.554 2.554 0 00-2.552 2.551v1.758a2.554 2.554 0 002.552 2.552h8.562v-6.861h-1.7a2.555 2.555 0 01-2.553-2.552 2.555 2.555 0 012.552-2.552c1.744 0 2.24 1.046 3.543 4.353.09.23.204.505.302.75h-.443v22.228h3.403V37.58h-.443c.098-.246.211-.52.302-.751 1.303-3.307 1.8-4.353 3.543-4.353a2.554 2.554 0 012.551 2.552 2.554 2.554 0 01-2.551 2.552h-1.701v6.86h8.562a2.555 2.555 0 002.552-2.55v-1.76a2.555 2.555 0 00-2.552-2.551z" fill="#fff"/></svg>