<svg width="90" height="90" fill="none" xmlns="http://www.w3.org/2000/svg"><rect width="90" height="90" rx="25" fill="#B089E3"/><path d="M40.98 53h-3.63V41.441l-3.567 1.042v-2.75l6.864-2.374h.334V53zm16.457-6.392c0 2.113-.477 3.742-1.43 4.888-.944 1.146-2.28 1.719-4.006 1.719-1.74 0-3.087-.577-4.039-1.73-.952-1.153-1.429-2.778-1.429-4.877v-2.857c0-2.113.473-3.742 1.418-4.888.953-1.146 2.295-1.718 4.029-1.718 1.733 0 3.076.576 4.028 1.729.952 1.153 1.429 2.782 1.429 4.888v2.846zm-3.62-3.319c0-1.124-.147-1.962-.44-2.514-.294-.558-.76-.837-1.397-.837-.623 0-1.078.257-1.365.773-.279.516-.43 1.296-.45 2.342v3.996c0 1.167.146 2.023.44 2.567.293.537.759.806 1.396.806.616 0 1.07-.261 1.364-.784.294-.53.444-1.357.451-2.482V43.29z" fill="#fff"/><path stroke="#fff" stroke-width="2" stroke-linecap="round" d="M29.586 31L26 27.414M29.586 60L26 63.586M61.414 31L65 27.414M61.414 60L65 63.586"/></svg>