<svg width="50" height="50" fill="none" xmlns="http://www.w3.org/2000/svg"><rect width="50" height="50" rx="16" fill="#404040" fill-opacity=".4"/><path d="M32.945 20.93A8.185 8.185 0 0035 18.8a8.56 8.56 0 01-2.362.648 4.078 4.078 0 001.804-2.266 8.205 8.205 0 01-2.6.992 4.099 4.099 0 00-7.093 2.803c0 .326.028.638.095.936a11.608 11.608 0 01-8.452-4.29 4.135 4.135 0 00-.561 2.073c0 1.42.73 2.678 1.822 3.407a4.053 4.053 0 01-1.853-.505v.045a4.12 4.12 0 003.285 4.03 4.076 4.076 0 01-1.075.135c-.263 0-.527-.015-.776-.07.531 1.623 2.04 2.817 3.831 2.856a8.242 8.242 0 01-5.084 1.748 7.76 7.76 0 01-.981-.055 11.547 11.547 0 006.29 1.84c7.236 0 11.952-6.037 11.655-12.198z" fill="#fff"/></svg>